<?xml version="1.0" encoding="utf-8"?>
<!-- Generator: Adobe Illustrator 23.0.5, SVG Export Plug-In . SVG Version: 6.00 Build 0)  -->
<svg version="1.1" id="Capa_1" xmlns="http://www.w3.org/2000/svg" xmlns:xlink="http://www.w3.org/1999/xlink" x="0px" y="0px"
	 width="522px" height="320px" viewBox="0 0 522 320" style="enable-background:new 0 0 522 320;" xml:space="preserve">
<style type="text/css">
	.st0{fill:#F8DC3D;}
	.st1{fill:url(#SVGID_1_);}
	.st2{fill:url(#SVGID_2_);}
	.st3{fill:url(#SVGID_3_);}
	.st4{fill:#004F79;}
	.st5{fill:#FAFAF6;}
	.st6{fill:#FFFFFF;}
</style>
<g>
	<g>
		<path class="st0" d="M211.4,145.4c0-0.7,0.1-1.4,0.1-2.2c0-34.9-28.3-63.2-63.2-63.2C113.3,80,85,108.3,85,143.2
			c0,0.7,0,1.4,0.1,2.2H211.4z"/>
		<linearGradient id="SVGID_1_" gradientUnits="userSpaceOnUse" x1="89.9969" y1="107.1259" x2="210.4977" y2="107.1259">
			<stop  offset="0" style="stop-color:#FFDE00"/>
			<stop  offset="0.298" style="stop-color:#F8DC3D"/>
			<stop  offset="0.4656" style="stop-color:#F8D938"/>
			<stop  offset="0.6599" style="stop-color:#F8D02A"/>
			<stop  offset="0.8667" style="stop-color:#F9C113"/>
			<stop  offset="1" style="stop-color:#F9B500"/>
		</linearGradient>
		<path class="st1" d="M210.5,132.3c-5.2-29.7-31.1-52.4-62.3-52.4c-24.9,0-46.4,14.4-56.7,35.2l-1.5,3.2l43,12.8
			C151.4,134.4,176.4,135.6,210.5,132.3z"/>
		<linearGradient id="SVGID_2_" gradientUnits="userSpaceOnUse" x1="84.9672" y1="138.0833" x2="211.4558" y2="138.0833">
			<stop  offset="0" style="stop-color:#F8DC3D"/>
			<stop  offset="0.2388" style="stop-color:#F8DA38"/>
			<stop  offset="0.5155" style="stop-color:#F9D32A"/>
			<stop  offset="0.8101" style="stop-color:#FAC713"/>
			<stop  offset="1" style="stop-color:#FBBE00"/>
		</linearGradient>
		<path class="st2" d="M210.5,132.1c-35.1,3.4-60.6,2.1-79-1.3c0,0,0,0,0,0c0.1,0.2,0.2,0.4,0.2,0.6c0.3,0.2,0.6,0.4,0.9,0.6
			c6.8,2.7,13.1,7.9,17.7,13.3h61.1c0-0.7,0.1-1.4,0.1-2.2C211.5,139.4,211.1,135.7,210.5,132.1z"/>
		<linearGradient id="SVGID_3_" gradientUnits="userSpaceOnUse" x1="84.9672" y1="131.1398" x2="152.0802" y2="131.1398">
			<stop  offset="0" style="stop-color:#F8DC3D"/>
			<stop  offset="0.2388" style="stop-color:#F8DA38"/>
			<stop  offset="0.5155" style="stop-color:#FAD52A"/>
			<stop  offset="0.8101" style="stop-color:#FBCB13"/>
			<stop  offset="1" style="stop-color:#FDC400"/>
		</linearGradient>
		<path class="st3" d="M152.1,145.4c-22.8-23.6-60.9-28.4-61.4-28.4c-3.7,8-5.7,16.9-5.7,26.3c0,0.7,0,1.4,0.1,2.2H152.1z"/>
	</g>
	<g>
		<g>
			<path class="st4" d="M83.8,278l-2.1,1.6c-1.2-1.5-2.6-2.7-4.3-3.5c-1.7-0.8-3.5-1.2-5.5-1.2c-2.2,0-4.2,0.5-6,1.6
				c-1.8,1-3.3,2.4-4.3,4.2c-1,1.8-1.5,3.7-1.5,5.9c0,3.3,1.1,6.1,3.4,8.3c2.3,2.2,5.1,3.3,8.6,3.3c3.8,0,7-1.5,9.5-4.5l2.1,1.6
				c-1.4,1.7-3,3.1-5.1,4c-2,0.9-4.3,1.4-6.8,1.4c-4.7,0-8.5-1.6-11.2-4.7c-2.3-2.7-3.5-5.9-3.5-9.7c0-4,1.4-7.3,4.2-10
				c2.8-2.7,6.3-4.1,10.5-4.1c2.5,0,4.8,0.5,6.9,1.5C80.9,274.8,82.5,276.2,83.8,278z"/>
			<path class="st4" d="M99.8,279.5c3.1,0,5.7,1.1,7.7,3.4c1.8,2,2.8,4.5,2.8,7.3c0,2.8-1,5.3-2.9,7.4c-2,2.1-4.5,3.1-7.5,3.1
				c-3.1,0-5.6-1-7.6-3.1c-2-2.1-2.9-4.5-2.9-7.4c0-2.8,0.9-5.2,2.8-7.2C94.1,280.7,96.7,279.5,99.8,279.5z M99.8,282.1
				c-2.1,0-4,0.8-5.5,2.4s-2.3,3.5-2.3,5.8c0,1.5,0.3,2.8,1.1,4.1c0.7,1.3,1.7,2.2,2.9,2.9c1.2,0.7,2.5,1,3.9,1s2.7-0.3,3.9-1
				c1.2-0.7,2.1-1.7,2.9-2.9c0.7-1.3,1.1-2.6,1.1-4.1c0-2.3-0.8-4.2-2.3-5.8C103.8,282.9,101.9,282.1,99.8,282.1z"/>
			<path class="st4" d="M116.5,280.1h2.6v3.5c0.9-1.3,1.8-2.2,2.8-2.8c1.3-0.8,2.7-1.2,4.1-1.2c1,0,1.9,0.2,2.8,0.6
				c0.9,0.4,1.6,0.9,2.1,1.5c0.6,0.6,1,1.5,1.4,2.7c0.9-1.6,1.9-2.8,3.2-3.6c1.3-0.8,2.7-1.2,4.2-1.2c1.4,0,2.6,0.4,3.7,1.1
				c1.1,0.7,1.9,1.7,2.4,2.9c0.5,1.3,0.8,3.1,0.8,5.6v11h-2.6v-11c0-2.2-0.2-3.6-0.5-4.4c-0.3-0.8-0.8-1.5-1.6-1.9
				c-0.7-0.5-1.6-0.7-2.7-0.7c-1.2,0-2.4,0.4-3.4,1.1s-1.8,1.7-2.3,3s-0.7,3.3-0.7,6.2v7.9h-2.6v-10.3c0-2.4-0.2-4.1-0.5-4.9
				c-0.3-0.9-0.8-1.6-1.6-2.1s-1.6-0.8-2.7-0.8c-1.2,0-2.3,0.4-3.3,1.1c-1,0.7-1.8,1.7-2.3,2.9c-0.5,1.2-0.7,3.1-0.7,5.6v8.5h-2.6
				V280.1z"/>
			<path class="st4" d="M153,280.1h2.6v9.4c0,2.3,0.1,3.9,0.4,4.7c0.4,1.2,1.1,2.2,2.1,2.9c1,0.7,2.3,1.1,3.7,1.1s2.7-0.3,3.7-1
				c1-0.7,1.7-1.6,2.1-2.7c0.3-0.8,0.4-2.4,0.4-4.9v-9.4h2.6v9.9c0,2.8-0.3,4.9-1,6.3c-0.6,1.4-1.6,2.5-2.9,3.3
				c-1.3,0.8-2.9,1.2-4.9,1.2c-2,0-3.6-0.4-4.9-1.2c-1.3-0.8-2.3-1.9-2.9-3.3c-0.6-1.4-1-3.6-1-6.4V280.1z"/>
			<path class="st4" d="M177.8,280.1h2.6v3.6c1-1.4,2.2-2.4,3.4-3.1c1.3-0.7,2.6-1,4.1-1c1.5,0,2.8,0.4,4,1.1c1.2,0.8,2,1.8,2.6,3.1
				s0.8,3.3,0.8,6v10.3h-2.6v-9.6c0-2.3-0.1-3.9-0.3-4.6c-0.3-1.3-0.9-2.3-1.7-3c-0.8-0.7-2-1-3.3-1c-1.6,0-3,0.5-4.2,1.6
				c-1.2,1-2.1,2.3-2.4,3.8c-0.2,1-0.4,2.8-0.4,5.5v7.4h-2.6V280.1z"/>
			<path class="st4" d="M203.2,271.8c0.6,0,1.1,0.2,1.5,0.6c0.4,0.4,0.6,0.9,0.6,1.5c0,0.6-0.2,1.1-0.6,1.5
				c-0.4,0.4-0.9,0.6-1.5,0.6c-0.6,0-1.1-0.2-1.5-0.6c-0.4-0.4-0.6-0.9-0.6-1.5c0-0.6,0.2-1.1,0.6-1.5
				C202.1,272,202.6,271.8,203.2,271.8z M201.9,280.1h2.6v20.1h-2.6V280.1z"/>
			<path class="st4" d="M231.3,272.3v27.8h-2.5v-3.5c-1.1,1.3-2.3,2.3-3.6,3c-1.3,0.7-2.8,1-4.4,1c-2.8,0-5.3-1-7.3-3.1
				c-2-2.1-3-4.6-3-7.5c0-2.9,1-5.4,3-7.4s4.5-3.1,7.3-3.1c1.6,0,3.1,0.4,4.5,1.1c1.3,0.7,2.5,1.8,3.5,3.2v-11.4H231.3z M221,282
				c-1.4,0-2.8,0.4-4,1.1c-1.2,0.7-2.2,1.7-2.9,3c-0.7,1.3-1.1,2.6-1.1,4.1c0,1.4,0.4,2.8,1.1,4.1c0.7,1.3,1.7,2.3,2.9,3
				c1.2,0.7,2.5,1.1,3.9,1.1c1.4,0,2.8-0.4,4-1.1c1.3-0.7,2.2-1.7,2.9-2.9c0.7-1.2,1-2.6,1-4.1c0-2.3-0.8-4.3-2.3-5.8
				C225.1,282.8,223.2,282,221,282z"/>
			<path class="st4" d="M258.6,280.1v20.1h-2.5v-3.5c-1.1,1.3-2.3,2.3-3.6,3c-1.3,0.7-2.8,1-4.4,1c-2.8,0-5.3-1-7.3-3.1
				c-2-2.1-3-4.6-3-7.5c0-2.9,1-5.4,3-7.4s4.5-3.1,7.3-3.1c1.6,0,3.1,0.4,4.5,1.1c1.3,0.7,2.5,1.8,3.5,3.2v-3.7H258.6z M248.3,282
				c-1.4,0-2.8,0.4-4,1.1c-1.2,0.7-2.2,1.7-2.9,3c-0.7,1.3-1.1,2.6-1.1,4.1c0,1.4,0.4,2.8,1.1,4.1c0.7,1.3,1.7,2.3,2.9,3
				c1.2,0.7,2.5,1.1,3.9,1.1c1.4,0,2.8-0.4,4-1.1c1.3-0.7,2.2-1.7,2.9-2.9c0.7-1.2,1-2.6,1-4.1c0-2.3-0.8-4.3-2.3-5.8
				C252.4,282.8,250.5,282,248.3,282z"/>
			<path class="st4" d="M285.9,272.3v27.8h-2.5v-3.5c-1.1,1.3-2.3,2.3-3.6,3c-1.3,0.7-2.8,1-4.4,1c-2.8,0-5.3-1-7.3-3.1
				c-2-2.1-3-4.6-3-7.5c0-2.9,1-5.4,3-7.4c2-2.1,4.5-3.1,7.3-3.1c1.6,0,3.1,0.4,4.5,1.1c1.3,0.7,2.5,1.8,3.5,3.2v-11.4H285.9z
				 M275.6,282c-1.4,0-2.8,0.4-4,1.1c-1.2,0.7-2.2,1.7-2.9,3c-0.7,1.3-1.1,2.6-1.1,4.1c0,1.4,0.4,2.8,1.1,4.1c0.7,1.3,1.7,2.3,2.9,3
				c1.2,0.7,2.5,1.1,3.9,1.1c1.4,0,2.8-0.4,4-1.1c1.3-0.7,2.2-1.7,2.9-2.9c0.7-1.2,1-2.6,1-4.1c0-2.3-0.8-4.3-2.3-5.8
				C279.7,282.8,277.8,282,275.6,282z"/>
			<path class="st4" d="M305.5,273h15.6v2.7h-12.8v8.5H321v2.7h-12.7v10.7H321v2.7h-15.4V273z"/>
			<path class="st4" d="M326.8,280.1h2.6v3.6c1-1.4,2.2-2.4,3.4-3.1c1.3-0.7,2.6-1,4.1-1c1.5,0,2.8,0.4,4,1.1c1.2,0.8,2,1.8,2.6,3.1
				s0.8,3.3,0.8,6v10.3h-2.6v-9.6c0-2.3-0.1-3.9-0.3-4.6c-0.3-1.3-0.9-2.3-1.7-3c-0.8-0.7-2-1-3.3-1c-1.6,0-3,0.5-4.2,1.6
				c-1.2,1-2.1,2.3-2.4,3.8c-0.2,1-0.4,2.8-0.4,5.5v7.4h-2.6V280.1z"/>
			<path class="st4" d="M368.2,293.5l2.2,1.1c-0.7,1.4-1.5,2.5-2.5,3.4s-2,1.5-3.2,2c-1.2,0.4-2.5,0.7-4,0.7c-3.3,0-5.8-1.1-7.7-3.2
				c-1.8-2.1-2.8-4.6-2.8-7.3c0-2.5,0.8-4.8,2.3-6.8c2-2.5,4.6-3.8,8-3.8c3.4,0,6.2,1.3,8.2,3.9c1.5,1.8,2.2,4.1,2.2,6.9h-18.1
				c0,2.3,0.8,4.2,2.2,5.7c1.4,1.5,3.2,2.2,5.3,2.2c1,0,2-0.2,3-0.5c1-0.4,1.8-0.8,2.5-1.4C366.6,295.7,367.4,294.8,368.2,293.5z
				 M368.2,288.1c-0.3-1.4-0.8-2.5-1.5-3.3c-0.7-0.8-1.5-1.5-2.6-2c-1.1-0.5-2.2-0.8-3.4-0.8c-2,0-3.7,0.6-5.1,1.9
				c-1,0.9-1.8,2.3-2.3,4.2H368.2z"/>
			<path class="st4" d="M376.3,280.1h2.6v2.9c0.8-1.2,1.6-2,2.5-2.6c0.9-0.6,1.8-0.9,2.7-0.9c0.7,0,1.5,0.2,2.3,0.7l-1.3,2.2
				c-0.5-0.2-1-0.4-1.4-0.4c-0.9,0-1.7,0.4-2.5,1.1c-0.8,0.7-1.4,1.8-1.8,3.3c-0.3,1.1-0.5,3.5-0.5,6.9v6.8h-2.6V280.1z"/>
			<path class="st4" d="M407.4,280.1h2.6v16c0,2.8-0.2,4.9-0.7,6.2c-0.7,1.8-1.9,3.3-3.5,4.3c-1.7,1-3.7,1.5-6,1.5
				c-1.7,0-3.3-0.2-4.6-0.7c-1.4-0.5-2.5-1.1-3.4-2s-1.7-2-2.4-3.6h2.8c0.8,1.3,1.7,2.3,3,3c1.2,0.6,2.7,1,4.5,1
				c1.8,0,3.2-0.3,4.5-1c1.2-0.7,2.1-1.5,2.6-2.5c0.5-1,0.8-2.6,0.8-4.8v-1c-1,1.2-2.2,2.2-3.6,2.8c-1.4,0.7-2.9,1-4.5,1
				c-1.8,0-3.6-0.5-5.2-1.4c-1.6-0.9-2.9-2.1-3.8-3.7c-0.9-1.6-1.3-3.3-1.3-5.1s0.5-3.6,1.4-5.2c0.9-1.6,2.2-2.9,3.8-3.8
				s3.4-1.4,5.2-1.4c1.5,0,2.9,0.3,4.2,0.9c1.3,0.6,2.6,1.6,3.8,3.1V280.1z M399.7,282c-1.5,0-2.8,0.4-4.1,1.1s-2.2,1.7-3,2.9
				c-0.7,1.2-1.1,2.6-1.1,4.1c0,2.2,0.7,4,2.2,5.5c1.5,1.4,3.4,2.2,5.7,2.2c2.4,0,4.3-0.7,5.7-2.1c1.4-1.4,2.2-3.3,2.2-5.6
				c0-1.5-0.3-2.9-1-4.1c-0.7-1.2-1.6-2.1-2.8-2.8C402.5,282.4,401.1,282,399.7,282z"/>
			<path class="st4" d="M433.8,293.5l2.2,1.1c-0.7,1.4-1.5,2.5-2.5,3.4s-2,1.5-3.2,2c-1.2,0.4-2.5,0.7-4,0.7c-3.3,0-5.8-1.1-7.7-3.2
				c-1.8-2.1-2.8-4.6-2.8-7.3c0-2.5,0.8-4.8,2.3-6.8c2-2.5,4.6-3.8,8-3.8c3.4,0,6.2,1.3,8.2,3.9c1.5,1.8,2.2,4.1,2.2,6.9h-18.1
				c0,2.3,0.8,4.2,2.2,5.7c1.4,1.5,3.2,2.2,5.3,2.2c1,0,2-0.2,3-0.5c1-0.4,1.8-0.8,2.5-1.4C432.3,295.7,433,294.8,433.8,293.5z
				 M433.8,288.1c-0.3-1.4-0.8-2.5-1.5-3.3c-0.7-0.8-1.5-1.5-2.6-2c-1.1-0.5-2.2-0.8-3.4-0.8c-2,0-3.7,0.6-5.1,1.9
				c-1,0.9-1.8,2.3-2.3,4.2H433.8z M427.6,270.6h4l-5.4,5.7h-2.5L427.6,270.6z"/>
			<path class="st4" d="M445.2,272.6h2.6v7.5h4.1v2.2h-4.1v17.8h-2.6v-17.8h-3.5v-2.2h3.5V272.6z"/>
			<path class="st4" d="M458.1,271.8c0.6,0,1.1,0.2,1.5,0.6c0.4,0.4,0.6,0.9,0.6,1.5c0,0.6-0.2,1.1-0.6,1.5
				c-0.4,0.4-0.9,0.6-1.5,0.6c-0.6,0-1.1-0.2-1.5-0.6c-0.4-0.4-0.6-0.9-0.6-1.5c0-0.6,0.2-1.1,0.6-1.5
				C457,272,457.5,271.8,458.1,271.8z M456.8,280.1h2.6v20.1h-2.6V280.1z"/>
			<path class="st4" d="M485.7,284.2l-2,1.3c-1.8-2.3-4.2-3.5-7.2-3.5c-2.4,0-4.5,0.8-6.1,2.4c-1.6,1.6-2.4,3.5-2.4,5.7
				c0,1.5,0.4,2.8,1.1,4.1c0.7,1.3,1.8,2.3,3.1,3c1.3,0.7,2.8,1.1,4.4,1.1c2.9,0,5.4-1.2,7.2-3.5l2,1.3c-1,1.4-2.2,2.6-3.9,3.4
				c-1.6,0.8-3.5,1.2-5.5,1.2c-3.2,0-5.8-1-7.9-3c-2.1-2-3.1-4.5-3.1-7.4c0-1.9,0.5-3.7,1.5-5.4c1-1.7,2.3-3,4-3.9s3.6-1.4,5.7-1.4
				c1.3,0,2.6,0.2,3.8,0.6c1.2,0.4,2.3,0.9,3.1,1.6C484.3,282.4,485,283.2,485.7,284.2z"/>
			<path class="st4" d="M512.1,280.1v20.1h-2.5v-3.5c-1.1,1.3-2.3,2.3-3.6,3c-1.3,0.7-2.8,1-4.4,1c-2.8,0-5.3-1-7.3-3.1
				c-2-2.1-3-4.6-3-7.5c0-2.9,1-5.4,3-7.4c2-2.1,4.5-3.1,7.3-3.1c1.6,0,3.1,0.4,4.5,1.1c1.3,0.7,2.5,1.8,3.5,3.2v-3.7H512.1z
				 M501.7,282c-1.4,0-2.8,0.4-4,1.1c-1.2,0.7-2.2,1.7-2.9,3c-0.7,1.3-1.1,2.6-1.1,4.1c0,1.4,0.4,2.8,1.1,4.1c0.7,1.3,1.7,2.3,2.9,3
				c1.2,0.7,2.5,1.1,3.9,1.1c1.4,0,2.8-0.4,4-1.1c1.3-0.7,2.2-1.7,2.9-2.9c0.7-1.2,1-2.6,1-4.1c0-2.3-0.8-4.3-2.3-5.8
				C505.9,282.8,504,282,501.7,282z"/>
		</g>
		<g>
			<g>
				<path class="st4" d="M333.3,19C315.4,11.8,296.1,8.9,277,9c-0.5,0-0.5,0.8,0,0.8c25.2,0.8,50.7,7.1,71.5,21.2
					c42.9,28.1,60.4,80.4,66.1,129.1c1.9,12.6,2.4,25.3,3,38l1,49.1c0,1.5,1.2,2.6,2.7,2.6c1.5,0,2.7-1.2,2.7-2.6l1-48.9
					c0-0.3,0-0.5,0-0.8C426.3,129.9,401,46.7,333.3,19z"/>
				<g>
					<g>
						<g>
							<path class="st4" d="M229.6,104.8c11.9,5,24.6,10.1,37.6,10.1c13.4-0.9,21.2-16.8,16.4-28.6c-5-12.8-21.3-13.7-33.1-12.2
								c-16.1,3.2-32.7,8.1-49.3,4.8c-11.5-2.8-18.3-16.7-12.9-27.4c6.3-11.2,18.4-17.6,29.7-22.6c24.5-9.8,51.2-16.3,77.7-12.8
								c27.8,4.7,54.2,19.5,71.7,41.8c3.7,5,8.3,10.2,12.1,15.1c10.7,13.7,18.6,29.4,23.3,46.1c4,12.4,4.4,25.5,7.2,38.2
								c1.1,3.9,1.7,8.9,5.2,11.4c0.2,0.1,0,0.3-0.1,0.2c-3.6-2.6-4.3-7.6-5.5-11.6c-2.9-12.6-3.4-25.7-7.5-38.1
								c-4.9-16.6-12.8-32.1-23.5-45.6c-3.8-4.9-8.5-10.1-12.3-15.1c-17.4-21.8-43.6-36.3-70.8-40.7c-26.1-3.4-52.5,3.3-76.5,13.1
								c-10.8,4.9-22.2,11-28.2,21.6c-4.6,9.2,1.3,21.2,11.2,23.6c16.1,3.2,32.4-1.9,48.3-4.7c9.9-1,21.1-0.7,29.3,5.6
								c8.3,6.7,9.4,19.4,4.3,28.2c-4.8,9.6-16.6,12.9-26.4,9.7C248.1,112.8,237.2,109.4,229.6,104.8L229.6,104.8z"/>
							<g>
								<path class="st4" d="M440.8,175.1h-39.5c-1.5,0-2.7-1.2-2.7-2.7s1.2-2.7,2.7-2.7h39.5c1.5,0,2.7,1.2,2.7,2.7
									S442.3,175.1,440.8,175.1z"/>
								<g>
									<path class="st4" d="M323.5,17c0.9,0.8,1.5,1.5,2,2.3c-0.4,0.7-1.2,2.7-1.5,3.5c-0.3,0.8-1.2,2.7-1.5,3.5
										c-0.9,0.1-1.8,0.1-3,0.1c-0.8-0.8-1.4-1.5-2-2.2c0.3-0.7,1.2-2.7,1.5-3.5c0.3-0.8,1.2-2.7,1.5-3.5
										C321.4,17,322.3,16.9,323.5,17L323.5,17z"/>
									<path class="st4" d="M378,54.9c0.2,1.2,0.3,2.2,0.3,3.2c-0.9,0.5-2.9,2.1-3.8,2.7c-0.8,0.6-3,2.1-3.8,2.7
										c-0.9-0.4-1.8-0.7-2.8-1.3c-0.2-1.2-0.3-2.2-0.3-3.1c0.8-0.6,3-2.1,3.8-2.7c0.9-0.6,3-2.1,3.8-2.7
										C376,53.9,376.9,54.3,378,54.9L378,54.9z"/>
									<path class="st4" d="M406.4,103.4c0.2,1.2,0.3,2.2,0.3,3.2c-0.9,0.5-2.9,2.1-3.8,2.7c-0.8,0.6-3,2.1-3.8,2.7
										c-0.9-0.4-1.8-0.7-2.8-1.3c-0.2-1.2-0.3-2.2-0.3-3.1c0.8-0.6,3-2.1,3.8-2.7c0.9-0.6,3-2.1,3.8-2.7
										C404.4,102.4,405.3,102.7,406.4,103.4L406.4,103.4z"/>
								</g>
							</g>
						</g>
						<path class="st4" d="M229.7,105.5c-3.9-0.4-8.3,0-11.8-2c-4-2.8-2.2-9.3,2.5-9.7c1.4-0.1,2.7,0.4,3.9,0.5
							c0.3,0.1,0.9,0.1,0.9,0.6c0.1,0.4-0.3,0.7-0.5,0.9c0,0-1.5,1.3-1.5,1.3c-0.1,0.1-0.2,0-0.1-0.1l1.4-1.4c0.6-0.5,0.5-1-0.3-0.9
							c-1.3-0.1-2.6-0.5-3.8-0.3c-2.5,0.3-4.2,2.9-3.7,5.2c0.6,2.6,2.8,3.5,5.3,3.8C224.5,104.1,227.7,104.4,229.7,105.5
							L229.7,105.5z"/>
						<g>
							<circle class="st5" cx="231.8" cy="106" r="2.1"/>
							<path class="st4" d="M231.8,108.5c-0.1,0-0.3,0-0.4,0c-0.7-0.1-1.2-0.5-1.6-1c-0.4-0.5-0.5-1.2-0.4-1.9
								c0.1-0.7,0.5-1.2,1-1.6c0.5-0.4,1.2-0.5,1.9-0.4c1.4,0.2,2.3,1.5,2,2.9C234.1,107.7,233,108.5,231.8,108.5z M231.8,104.2
								c-0.4,0-0.7,0.1-1,0.3c-0.4,0.3-0.7,0.7-0.7,1.2v0c-0.1,0.5,0,1,0.3,1.3c0.3,0.4,0.7,0.7,1.2,0.7c1,0.1,1.9-0.5,2.1-1.5
								c0.2-1-0.5-1.9-1.5-2.1C232,104.2,231.9,104.2,231.8,104.2z M229.7,105.7L229.7,105.7L229.7,105.7z"/>
						</g>
					</g>
					<g>
						<g>
							<circle class="st6" cx="418.8" cy="175.9" r="7"/>
							<path class="st4" d="M418.8,184.8c-4.9,0-8.9-4-8.9-8.9s4-8.9,8.9-8.9s8.9,4,8.9,8.9S423.7,184.8,418.8,184.8z M418.8,170.9
								c-2.8,0-5.1,2.3-5.1,5.1s2.3,5.1,5.1,5.1c2.8,0,5.1-2.3,5.1-5.1S421.6,170.9,418.8,170.9z"/>
						</g>
						<g>
							<circle class="st6" cx="418.8" cy="175.9" r="2.2"/>
							<path class="st4" d="M418.8,178.8c-1.5,0-2.8-1.3-2.8-2.8s1.3-2.8,2.8-2.8c1.5,0,2.8,1.3,2.8,2.8S420.4,178.8,418.8,178.8z
								 M418.8,174.3c-0.9,0-1.6,0.7-1.6,1.6c0,0.9,0.7,1.6,1.6,1.6c0.9,0,1.6-0.7,1.6-1.6C420.5,175.1,419.7,174.3,418.8,174.3z"/>
						</g>
					</g>
				</g>
			</g>
			<g>
				<path class="st4" d="M494.4,203.1h15.6c1.5,0,2.7-1.2,2.7-2.7c0-1.5-1.2-2.7-2.7-2.7h-15.6c0,0-0.1,0-0.1,0
					c-10.9-0.1-20.1-8.1-21.1-18.3c-0.6-5.8,1.3-11.4,5.2-15.6c3.8-4.2,9.3-6.6,15-6.6l12.5-0.2l-6.2,8.3c-0.9,1.2-0.7,2.9,0.6,3.8
					c1.2,0.9,2.9,0.7,3.8-0.6l6.7-9c1.2-1.6,1.3-3.6,0.4-5.3c-0.9-1.7-2.5-2.8-4.6-2.8l-13.3,0.2c-7.2,0-14.2,3.1-19.1,8.4
					c-4.9,5.4-7.3,12.5-6.6,19.8c0.7,7.3,4.7,13.8,10.5,18h-111l-10.8-43c-0.5-1.8-2.1-3.1-4-3.1c-1.9,0-3.5,1.3-4,3.1l-10.8,43
					h-41.2c5.6-4.2,9.5-10.5,10.2-17.7c0.7-7.4-1.6-14.4-6.6-19.8c-4.9-5.4-11.8-8.4-19-8.4l-13.3-0.2c-2,0-3.7,1-4.6,2.8
					c-0.9,1.7-0.7,3.8,0.5,5.3l6.7,9c0.9,1.2,2.6,1.5,3.8,0.6c1.2-0.9,1.5-2.6,0.6-3.8l-6.2-8.3l12.5,0.2c5.7,0,11.2,2.4,15,6.6
					c3.9,4.3,5.7,9.8,5.2,15.6c-1,10.3-10.3,18.3-21.2,18.3h-50.8c5.1-4.2,8.5-10.2,9.2-16.9c0.7-7.4-1.6-14.4-6.6-19.8
					c-4.9-5.4-11.8-8.4-19-8.4l-13.3-0.2c-1.9,0-3.7,1-4.6,2.8c-0.9,1.7-0.7,3.8,0.5,5.3l6.7,9c0.9,1.2,2.6,1.5,3.8,0.6
					c1.2-0.9,1.5-2.6,0.6-3.8l-6.2-8.3l12.5,0.2c5.7,0,11.2,2.4,15,6.6c3.9,4.3,5.7,9.8,5.2,15.6c-1,10.3-10.3,18.3-21.2,18.3h-48.8
					l-11.1-44c-0.5-1.8-2.1-3.1-4-3.1c-1.9,0-3.5,1.2-4,3.1l-11.1,44H90.2c6.3-4.2,10.8-10.9,11.5-18.7c0.7-7.4-1.6-14.4-6.6-19.8
					c-4.9-5.4-11.8-8.4-19-8.4l-13.3-0.2c-1.9,0-3.7,1-4.6,2.8c-0.9,1.7-0.7,3.8,0.5,5.3l6.7,9c0.9,1.2,2.6,1.5,3.8,0.6
					c1.2-0.9,1.5-2.6,0.6-3.8l-6.2-8.3l12.5,0.2c5.7,0,11.2,2.4,15,6.6c3.9,4.3,5.7,9.8,5.2,15.6c-1,10.3-10.3,18.3-21.2,18.3H31.5
					c-1.5,0-2.7,1.2-2.7,2.7c0,0.8,0.3,1.4,0.8,1.9c0.5,0.5,1.2,0.9,2,0.9h43.6c10.9,0,20.2,8,21.2,18.3c0.6,5.8-1.3,11.4-5.2,15.6
					c-3.8,4.2-9.3,6.6-15,6.6l-12.5,0.2l6.2-8.3c0.9-1.2,0.7-2.9-0.6-3.8c-1.2-0.9-2.9-0.6-3.8,0.6l-6.7,9c-1.2,1.6-1.3,3.6-0.4,5.3
					c0.9,1.7,2.6,2.8,4.5,2.8c0,0,0,0,0.1,0l13.3-0.2c7.2,0,14.2-3.1,19.1-8.4c4.9-5.4,7.3-12.5,6.6-19.8c-0.6-6.8-4.1-12.8-9.2-17
					h39.1L121,246.4c-0.4,1.5,0.5,3,2,3.3c1.5,0.4,3-0.5,3.3-2l10.9-43.4h21.6l10.9,43.4c0.3,1.2,1.4,2.1,2.7,2.1
					c0.2,0,0.4,0,0.7-0.1c1.5-0.4,2.4-1.9,2-3.3l-10.6-42.1H194c-0.1,0.2-0.2,0.5-0.2,0.8v41.9c0,1.5,1.2,2.7,2.7,2.7
					s2.7-1.2,2.7-2.7V205c0-0.3-0.1-0.5-0.2-0.8h12.7c1.2,0,2.4-0.1,3.6-0.3l18,43.8c0.4,1.1,1.5,1.7,2.5,1.7c0.3,0,0.7-0.1,1-0.2
					c1.4-0.6,2.1-2.2,1.5-3.6l-17.4-42.2h59h0c10.9,0,20.2,8,21.2,18.3c0.6,5.8-1.3,11.4-5.2,15.6c-3.8,4.2-9.3,6.6-15,6.6
					l-12.5,0.2l6.2-8.3c0.9-1.2,0.7-2.9-0.6-3.8c-1.2-0.9-2.9-0.6-3.8,0.6l-6.7,9c-1.2,1.6-1.3,3.6-0.4,5.3c0.9,1.7,2.6,2.8,4.5,2.8
					c0,0,0,0,0.1,0l13.3-0.2c7.2,0,14.2-3.1,19.1-8.4c4.9-5.4,7.3-12.5,6.6-19.8c-0.7-7.2-4.6-13.5-10.2-17.8l39.7,0l-10.8,43
					c-0.4,1.5,0.5,3,2,3.3c0.2,0.1,0.4,0.1,0.7,0.1c1.2,0,2.3-0.8,2.7-2.1l11.2-44.4l21.1,0l11.2,44.4c0.4,1.5,1.9,2.4,3.3,2
					c1.5-0.4,2.4-1.9,2-3.3l-10.8-43l52.4,0c0.3,0,0.7-0.1,1-0.2h55.6c-5.5,4.2-9.3,10.5-9.9,17.5c-0.7,7.4,1.6,14.4,6.6,19.8
					c4.9,5.4,11.8,8.4,19,8.4l13.3,0.2c0,0,0,0,0.1,0c1.9,0,3.6-1.1,4.5-2.8c0.9-1.7,0.7-3.8-0.5-5.3l-6.7-9
					c-0.9-1.2-2.6-1.5-3.8-0.6c-1.2,0.9-1.5,2.6-0.6,3.8l6.2,8.3l-12.5-0.2c-5.7,0-11.2-2.4-15-6.6c-3.9-4.3-5.7-9.8-5.2-15.6
					C474.2,211.2,483.5,203.1,494.4,203.1z M148.1,161.4l9.2,36.5h-18.4L148.1,161.4z M352.5,161.6l9.1,36.3h-18.3L352.5,161.6z"/>
				<path class="st4" d="M20.6,213c-7.1,0-12.8-5.7-12.8-12.8s5.7-12.8,12.8-12.8c7.1,0,12.8,5.7,12.8,12.8S27.6,213,20.6,213z
					 M20.6,192.9c-4,0-7.3,3.3-7.3,7.3s3.3,7.3,7.3,7.3s7.3-3.3,7.3-7.3S24.6,192.9,20.6,192.9z"/>
			</g>
		</g>
	</g>
</g>
</svg>
