<?xml version="1.0" encoding="utf-8"?>
<!-- Generator: Adobe Illustrator 23.0.5, SVG Export Plug-In . SVG Version: 6.00 Build 0)  -->
<svg version="1.1" id="Capa_1" xmlns="http://www.w3.org/2000/svg" xmlns:xlink="http://www.w3.org/1999/xlink" x="0px" y="0px"
	 viewBox="0 0 1000 910" style="enable-background:new 0 0 1000 910;" xml:space="preserve">
<style type="text/css">
	.st0{fill:#008F4C;}
	.st1{fill:#FBDC01;}
	.st2{opacity:0.84;}
	.st3{clip-path:url(#SVGID_1_);fill:#008F4C;}
	.st4{fill:#005228;}
	.st5{fill:#006633;}
	.st6{fill:#4BB8AE;}
</style>
<g>
	<path class="st0" d="M280.6,652.7l-15.8,15.1c-10.8-11.4-22.9-17.1-36.3-17.1c-11.3,0-20.9,3.9-28.7,11.6
		c-7.8,7.8-11.7,17.3-11.7,28.7c0,7.9,1.7,14.9,5.2,21.1c3.4,6.1,8.3,11,14.6,14.5c6.3,3.5,13.3,5.3,21,5.3c6.6,0,12.5-1.2,18-3.7
		c5.4-2.5,11.4-6.9,17.9-13.4l15.3,16c-8.8,8.6-17.1,14.5-24.9,17.8c-7.8,3.3-16.7,5-26.7,5c-18.5,0-33.6-5.8-45.3-17.6
		c-11.8-11.7-17.6-26.7-17.6-45c0-11.8,2.7-22.4,8-31.6c5.4-9.2,13-16.6,23-22.2c10-5.6,20.7-8.4,32.2-8.4c9.8,0,19.2,2.1,28.3,6.2
		C266.3,639.2,274.1,645.1,280.6,652.7"/>
	<path class="st0" d="M311,631.8h22.7v76.8c0,6.6,0.6,11.3,1.7,14c1.2,2.7,3.1,4.9,5.7,6.6c2.7,1.6,5.9,2.5,9.6,2.5
		c4,0,7.4-0.9,10.3-2.7c2.9-1.8,4.9-4.2,6-7c1.1-2.8,1.7-8.2,1.7-16.2v-74h22.7v70.8c0,11.9-0.7,20.2-2,24.9
		c-1.3,4.6-3.9,9.1-7.7,13.4c-3.8,4.3-8.2,7.5-13.1,9.6c-5,2.1-10.7,3.1-17.3,3.1c-8.6,0-16.1-2-22.5-5.9c-6.4-4-10.9-8.9-13.7-14.9
		c-2.7-5.9-4.1-16-4.1-30.1V631.8z"/>
	<polygon class="st0" points="429.1,631.8 494,631.8 494,653.9 451.6,653.9 451.6,675.4 494,675.4 494,697.1 451.6,697.1 
		451.6,728.4 494,728.4 494,750.6 429.1,750.6 	"/>
	<polygon class="st0" points="517.4,631.8 540.7,631.8 570.5,716.2 600.9,631.8 624.1,631.8 581.3,750.6 559.5,750.6 	"/>
	<path class="st0" d="M689.8,631.8h22.9l45.7,118.7h-23.5l-9.3-24.5h-48.5l-9.7,24.5H644L689.8,631.8z M701.4,663.3l-15.9,40.8h31.8
		L701.4,663.3z"/>
	<path class="st0" d="M849.6,648l-16.7,14.8c-5.9-8.2-11.9-12.3-18-12.3c-3,0-5.4,0.8-7.3,2.4c-1.9,1.6-2.8,3.4-2.8,5.4
		c0,2,0.7,3.9,2,5.6c1.8,2.4,7.4,7.5,16.6,15.3c8.6,7.2,13.9,11.8,15.7,13.6c4.6,4.6,7.8,9.1,9.7,13.3c1.9,4.2,2.9,8.8,2.9,13.8
		c0,9.7-3.4,17.8-10.1,24.1c-6.7,6.3-15.5,9.5-26.3,9.5c-8.5,0-15.8-2.1-22.1-6.2c-6.3-4.1-11.6-10.7-16.1-19.5l19-11.5
		c5.7,10.5,12.3,15.7,19.7,15.7c3.9,0,7.1-1.1,9.8-3.4c2.6-2.3,4-4.9,4-7.8c0-2.7-1-5.4-3-8.1c-2-2.7-6.4-6.8-13.2-12.3
		c-12.9-10.5-21.3-18.7-25.1-24.4c-3.8-5.7-5.7-11.5-5.7-17.2c0-8.2,3.1-15.3,9.4-21.2c6.3-5.9,14-8.8,23.2-8.8
		c5.9,0,11.6,1.4,16.9,4.1C837.6,635.7,843.4,640.7,849.6,648"/>
	<path class="st0" d="M165.9,805.3h18.4c11.9,0,20.7,1.5,26.5,4.4c5.8,2.9,10.5,7.7,14.3,14.3c3.7,6.6,5.6,14.4,5.6,23.2
		c0,6.3-1,12.1-3.1,17.3c-2.1,5.3-5,9.7-8.7,13.1c-3.7,3.5-7.7,5.9-11.9,7.2c-4.3,1.3-11.7,2-22.3,2h-18.7V805.3z M181.3,820.3v51.5
		h7.2c7.1,0,12.3-0.8,15.5-2.4c3.2-1.6,5.8-4.4,7.9-8.2c2-3.9,3.1-8.6,3.1-14.2c0-8.7-2.4-15.4-7.3-20.2c-4.4-4.3-11.4-6.4-21-6.4
		H181.3z"/>
	<polygon class="st0" points="251.7,805.3 296.3,805.3 296.3,820.5 267.2,820.5 267.2,835.3 296.3,835.3 296.3,850.2 267.2,850.2 
		267.2,871.7 296.3,871.7 296.3,886.9 251.7,886.9 	"/>
	<polygon class="st0" points="317,805.3 332.6,805.3 332.6,872.1 355.2,872.1 355.2,886.9 317,886.9 	"/>
	<path class="st0" d="M486.4,819.7L475.5,830c-7.4-7.8-15.7-11.7-24.9-11.7c-7.8,0-14.4,2.7-19.7,8s-8,11.9-8,19.7
		c0,5.4,1.2,10.3,3.5,14.5c2.4,4.2,5.7,7.5,10,9.9c4.3,2.4,9.1,3.6,14.4,3.6c4.5,0,8.6-0.8,12.4-2.5c3.7-1.7,7.8-4.8,12.3-9.2
		l10.5,11c-6,5.9-11.7,10-17.1,12.2c-5.4,2.3-11.5,3.4-18.4,3.4c-12.7,0-23.1-4-31.2-12.1c-8.1-8-12.1-18.4-12.1-30.9
		c0-8.1,1.8-15.4,5.5-21.7c3.7-6.3,9-11.4,15.8-15.3c6.9-3.8,14.3-5.8,22.2-5.8c6.7,0,13.2,1.4,19.5,4.3
		C476.5,810.4,481.9,814.4,486.4,819.7"/>
	<path class="st0" d="M531.1,805.3h15.8l31.4,81.6h-16.2l-6.4-16.8h-33.3l-6.6,16.8h-16.1L531.1,805.3z M539.1,827l-11,28H550
		L539.1,827z"/>
	<polygon class="st0" points="604.5,805.3 619.6,805.3 638.5,862.2 657.6,805.3 672.8,805.3 686.5,886.9 671.4,886.9 662.7,835.4 
		645.3,886.9 631.6,886.9 614.5,835.4 605.5,886.9 590.3,886.9 	"/>
	<path class="st0" d="M705,805.3h16.5c8.9,0,15.3,0.8,19.3,2.5c3.9,1.6,7,4.3,9.3,8c2.3,3.7,3.4,8.1,3.4,13.2
		c0,5.7-1.5,10.4-4.5,14.2c-3,3.8-7,6.4-12.1,7.9c-3,0.9-8.5,1.3-16.4,1.3v34.6H705V805.3z M720.6,837.2h4.9c3.9,0,6.6-0.3,8.1-0.8
		c1.5-0.6,2.7-1.5,3.6-2.8c0.9-1.3,1.3-2.8,1.3-4.7c0-3.2-1.2-5.5-3.7-6.9c-1.8-1.1-5.1-1.6-9.9-1.6h-4.4V837.2z"/>
	<path class="st0" d="M813.5,803.3c11.5,0,21.5,4.2,29.8,12.5c8.3,8.4,12.5,18.6,12.5,30.6c0,11.9-4.1,22-12.3,30.2
		c-8.2,8.3-18.2,12.4-29.9,12.4c-12.3,0-22.4-4.2-30.5-12.7c-8.1-8.5-12.2-18.5-12.2-30.2c0-7.8,1.9-15,5.7-21.5
		c3.8-6.5,9-11.7,15.6-15.6C798.8,805.2,805.9,803.3,813.5,803.3 M813.4,818.5c-7.6,0-13.9,2.6-19.1,7.9c-5.1,5.3-7.7,11.9-7.7,20
		c0,9,3.2,16.2,9.7,21.4c5,4.1,10.8,6.2,17.3,6.2c7.4,0,13.6-2.7,18.8-8c5.2-5.3,7.8-11.9,7.8-19.7c0-7.8-2.6-14.3-7.8-19.7
		C827.2,821.2,820.8,818.5,813.4,818.5"/>
	<path class="st1" d="M302.9,205.9c26.6,9.6,49.8-1.6,66-14.6c0,0,41.6-28.3,92.4-30.9c41.7-2.1,119.8,3.4,146.3,5.4
		c4.8,0.4,9.4-1.9,12.9-6.1c5.2-6.4,16.9-14.1,42.2-8.9c21.3,4.5,71,17.6,115.3,31.9C725.6,87.6,624.4,23,508.2,23
		c-139,0-256.4,92.3-294.5,218.9C240.3,216.9,261.4,190.9,302.9,205.9"/>
	<g class="st2">
		<g>
			<defs>
				<rect id="SVGID_2_" x="10.2" y="149.1" width="746.2" height="202.1"/>
			</defs>
			<clipPath id="SVGID_1_">
				<use xlink:href="#SVGID_2_"  style="overflow:visible;"/>
			</clipPath>
			<path class="st3" d="M677.5,302.7c16.6-12.7,46.7-85.2,51.7-95.5c6.6-13.8,16.3-23.9,27.2-31.2c-37.9-11.5-75.8-21.4-93.8-25.2
				c-25.3-5.3-37,2.5-42.2,8.9c-3.5,4.3-8.1,6.5-12.9,6.1c-26.5-2-104.6-7.5-146.3-5.4c-50.8,2.6-92.4,30.9-92.4,30.9
				c-16.2,13-39.4,24.2-66,14.6c-51.3-18.6-71.4,25.6-109.6,53.1c-38.2,27.5-67.7,31.2-75.9,33.9c-42.9,14.3-107.1,58.2-107.1,58.2
				h642C652.3,351.2,661,315.4,677.5,302.7"/>
		</g>
	</g>
	<path class="st0" d="M990.7,351.2l-18.5-30.6c-9.8-17.2-22.8-39.3-36.1-59.7l-0.1-0.2l0,0c-17.2-26.3-34.9-49.7-46.9-56
		c-39.1-20.6-17.3-41.7-62-45.6c-27.3-2.4-77.1,5.1-97.8,48.2c-5,10.3-35.1,82.8-51.7,95.5c-16.6,12.6-25.3,48.5-25.3,48.5h329.9
		h0.3H990.7z"/>
	<path class="st4" d="M738.1,351.2c-3.5,0-7.8-4.4-5.9-9.9c4-11.7,12.6-35.2,21.9-40.3c12.6-6.9,17.9-13.4,17.9-13.4
		s16.9-15.7,31.2,0c3.6,4,7.3,9.8,10.7,16.3c-4.9-10.2-10.3-19.7-15.8-25.7c-17.5-18.9-38.1,0-38.1,0s-6.6,7.8-21.9,16.2
		c-11.4,6.2-22,34.4-26.7,48.6c-1.4,4,1.6,8.2,5.9,8.2H738.1z"/>
	<path class="st5" d="M738.1,351.2c-3.5,0-7.8-4.4-5.9-9.9c4-11.7,12.6-35.2,21.9-40.3c12.6-6.9,17.9-13.4,17.9-13.4
		s16.9-15.7,31.2,0c8.9,9.7,18,30.4,22.8,45.1c3,9.2-3.7,18.4-11.6,18.4L738.1,351.2z"/>
	<path class="st6" d="M10.2,351.2h980.5c-5,24.1-49.8,29.3-83.7,38.2c-13.3,3.5-17.9,5-24.9,19.6c-7,14.6-15.7,19.7-27.8,27.3
		c-7.3,4.6-13.2,4.5-15.5,20c-2.7,18.5-63.4,10.6-92.5,13.1c-16.2,1.4-22.5,10.1-24.8,17.5c-6.5,20.5-23.8,35.7-45.3,37.1
		c-0.9,0.1-1.8,0.1-2.8,0.2c-46.7,2.1-47.8,12.1-82.5,23.6c-34.7,11.6-95.9,0.5-139.4-16.1c-15.6-5.9-36-13.1-89.3-13.1
		c-53.3,0-58.6-21.1-60.8-34.7c-0.8-4.8,0.5-17.6-39.7-19.6c-5.6-0.3-10.6-0.7-15-1.2c-13.8-1.6-26.2-7.7-37.6-15.7
		c-5.5-3.9-18.7-8.2-50.5-8.2c-57.3,0-65.4-20.6-77.9-35.7c-12.6-15.1-36.7-13.1-52.3-21.1C12.7,374.3,10.2,351.2,10.2,351.2"/>
	<path class="st0" d="M79.2,351.2c0,0,72.7-45.8,93.2-44.6c20.6,1.2,52.5-17.5,63.5-29.1c11-11.6,27.9-33.2,44.3-29.7
		c16.4,3.5,30.2,20.4,56.2,14.5c26-5.8,39.8-20.9,57.1-8.1c17.4,12.8,74,97,74,97H79.2z"/>
</g>
</svg>
