<?xml version="1.0" encoding="utf-8"?>
<!-- Generator: Adobe Illustrator 23.0.5, SVG Export Plug-In . SVG Version: 6.00 Build 0)  -->
<svg version="1.1" id="Capa_1" xmlns="http://www.w3.org/2000/svg" xmlns:xlink="http://www.w3.org/1999/xlink" x="0px" y="0px"
	 viewBox="0 0 1080 359" style="enable-background:new 0 0 1080 359;" xml:space="preserve">
<style type="text/css">
	.st0{fill:#6A93BF;}
	.st1{fill:#184C9A;}
	.st2{opacity:0.44;}
	.st3{clip-path:url(#SVGID_1_);fill:#184C9A;}
	.st4{opacity:0.41;}
	.st5{clip-path:url(#SVGID_2_);fill:#184C9A;}
	.st6{fill:#FFFFFF;}
</style>
<g>
	<g>
		<path class="st0" d="M235.3,326.6c-81.8,32.7-174.7-7.1-207.4-88.9c-32.7-81.8,7.1-174.7,89-207.4c81.8-32.7,174.7,7.1,207.4,88.9
			C356.9,201,317.1,293.9,235.3,326.6"/>
		<path class="st1" d="M452.4,187.7h23c-1.1,6-4,11-8.7,14.8c-5,4.1-11.2,6.1-18.4,6.1c-6,0-11.6-1.4-16.6-4.1
			c-5-2.7-9-6.5-11.8-11.3c-2.8-4.8-4.3-9.8-4.3-15.1c0-5.2,1.4-10.1,4.1-14.7c2.7-4.6,6.6-8.4,11.6-11.1c9-4.9,19.1-5.6,29.6-1.1
			c4.7,2,9.1,5,13,8.9l0.6,0.6l7-6.6l-0.7-0.7c-5.2-5-10.7-8.6-16.2-10.9c-5.5-2.3-11.5-3.4-17.7-3.4c-7.7,0-14.8,1.7-20.9,5.1
			c-6.1,3.4-11,8.2-14.6,14.2c-3.5,6-5.3,12.7-5.3,19.7c0,9.4,3.1,17.9,9.3,25.1c8,9.3,19,14.1,32.6,14.1c11.3,0,20.4-3.4,27.2-10.2
			c6.7-6.8,10.2-16,10.3-27.4l0-0.9h-33.2V187.7z"/>
		<path class="st1" d="M553.9,185.8c0,5.6-0.2,9.4-0.7,11.1c-0.7,2.4-1.7,4.5-3.1,6.2c-1.4,1.7-3.1,3-5.2,4
			c-4.5,2.1-9.6,1.9-14.4-0.4c-2.6-1.2-4.5-2.8-5.7-4.5c-1.2-1.8-2-4.1-2.4-6.8c-0.2-1.2-0.3-4.4-0.3-9.6V141H513v44.8
			c0,7.5,0.4,12.6,1.4,15.6c1.5,4.8,4.4,8.7,8.8,11.6c4.3,2.9,9.6,4.4,15.6,4.4c5.6,0,10.4-1.6,14.4-4.6c3.9-3.1,6.6-6.7,7.9-10.9
			c1.3-4.1,1.9-9.5,1.9-16V141h-9.1V185.8z"/>
		<path class="st1" d="M622.5,141l-35.2,74.5h10.1l11.3-23.9h30.2l11.4,23.9h9.8L625.4,141H622.5z M634.9,182.8h-22l11-23.3
			L634.9,182.8z"/>
		<path class="st1" d="M720.6,179.4c3.6-1.6,6.4-4,8.4-7.2c1.9-3.1,2.9-6.8,2.9-10.9c0-5-1.4-9.2-4.3-12.6c-2.8-3.4-6.5-5.6-11-6.7
			c-2.9-0.7-8.5-1-16.6-1h-15.4v74.5h9.1v-33.8h2.8l26.1,33.8h11.3l-26.2-33.8C713.1,181.6,717.4,180.8,720.6,179.4 M705.4,173
			l-11.6-0.1V150h11.9c4.9,0,8.3,0.4,10.4,1.2c2,0.8,3.6,2.1,4.8,3.9c1.2,1.8,1.8,3.9,1.8,6.1c0,2.3-0.6,4.4-1.8,6.3
			c-1.2,1.9-2.9,3.2-5,4.1C713.6,172.5,710.1,173,705.4,173"/>
		<path class="st1" d="M796.4,139.2c-6.9,0-13.4,1.7-19.4,5.2c-5.9,3.4-10.7,8.3-14.2,14.3c-3.4,6.1-5.2,12.8-5.2,19.9
			c0,10.7,3.8,19.9,11.4,27.4c7.6,7.5,17,11.3,27.9,11.3c10.9,0,20.2-3.8,27.7-11.4c7.5-7.6,11.4-16.9,11.4-27.7
			c0-10.9-3.8-20.3-11.4-27.8C817.1,143,807.6,139.2,796.4,139.2 M826.8,178.2c0,5.6-1.3,10.8-3.9,15.4c-2.6,4.6-6.3,8.2-10.9,10.9
			c-4.6,2.6-9.8,4-15.2,4c-8.2,0-15.2-2.9-21-8.7c-5.8-5.7-8.7-12.9-8.7-21.2c0-5.6,1.3-10.8,3.9-15.4c2.6-4.6,6.3-8.3,11-11
			c4.7-2.7,9.6-4.1,14.8-4.1c5.3,0,10.4,1.4,15.1,4.1c4.7,2.7,8.4,6.4,11,10.9C825.5,167.5,826.8,172.7,826.8,178.2"/>
		<path class="st1" d="M884.1,172.8c-5.3-3.9-8.4-6.3-9.3-7.2c-1.7-1.7-2.8-3.2-3.4-4.6c-0.6-1.4-0.9-2.8-0.9-4.2
			c0-2.4,0.8-4.3,2.5-5.9c1.7-1.6,3.9-2.4,6.6-2.4c2.1,0,4.1,0.5,5.8,1.6c1.8,1.1,4.1,3.4,6.7,6.9l0.5,0.7l7.4-5.6l-0.5-0.7
			c-3.4-4.6-6.7-7.9-9.8-9.6c-6-3.4-13.5-3.5-19.5-0.3c-2.9,1.6-5.2,3.8-6.7,6.5c-1.6,2.7-2.4,5.8-2.4,9.1c0,4.2,1.4,8.1,4,11.7
			c1.6,2.1,5.3,5.5,11.5,10.1c5.9,4.5,10.1,8.3,12.3,11.5c1.5,2.2,2.3,4.4,2.3,6.6c0,2-0.5,3.9-1.6,5.6c-1,1.8-2.6,3.2-4.5,4.2
			c-2,1.1-4.2,1.6-6.4,1.6c-5.3,0-10.1-3.9-14.3-11.5l-0.4-0.8l-7.7,4.6l0.4,0.8c3.1,5.7,6.5,9.7,10.2,12.2
			c3.7,2.4,7.9,3.7,12.5,3.7c5.9,0,11.1-2,15.2-6.1c4.2-4.1,6.3-8.9,6.3-14.4c0-3.8-1.2-7.7-3.6-11.4
			C894.9,181.8,890.4,177.5,884.1,172.8"/>
		<path class="st1" d="M965.2,139.2c-6.9,0-13.4,1.7-19.4,5.2c-5.9,3.4-10.7,8.3-14.2,14.3c-3.4,6.1-5.2,12.8-5.2,19.9
			c0,10.7,3.8,19.9,11.4,27.4c7.6,7.5,17,11.3,27.9,11.3c10.9,0,20.2-3.8,27.7-11.4c7.5-7.6,11.4-16.9,11.4-27.7
			c0-10.9-3.8-20.3-11.4-27.8C985.9,143,976.4,139.2,965.2,139.2 M995.5,178.2c0,5.6-1.3,10.8-3.9,15.4c-2.6,4.6-6.3,8.2-10.9,10.9
			c-4.6,2.6-9.8,4-15.2,4c-8.2,0-15.2-2.9-21-8.7c-5.8-5.7-8.7-12.9-8.7-21.2c0-5.6,1.3-10.8,3.9-15.4c2.6-4.6,6.3-8.3,11-11
			c4.7-2.7,9.6-4.1,14.8-4.1c5.3,0,10.4,1.4,15.1,4.1c4.7,2.7,8.4,6.4,11,10.9C994.2,167.5,995.5,172.7,995.5,178.2"/>
		<polygon class="st1" points="1041.9,206.7 1041.9,141 1032.8,141 1032.8,215.5 1069.8,215.5 1069.8,206.7 		"/>
		<g class="st2">
			<g>
				<defs>
					<rect id="SVGID_21_" x="16.4" y="89.3" width="319.2" height="248.7"/>
				</defs>
				<clipPath id="SVGID_1_">
					<use xlink:href="#SVGID_21_"  style="overflow:visible;"/>
				</clipPath>
				<path class="st3" d="M308.4,89.3c-34.7,9.2-60.6,20.8-60.6,20.8s-66.1,37.2-103.8,5.8C122.2,97.7,77.5,91.5,43.6,89.5
					c-28.3,42.3-36,97.3-15.7,148.1c32.7,81.8,125.6,121.7,207.4,89c81.8-32.7,121.7-125.6,88.9-207.4
					C319.9,108.4,314.6,98.5,308.4,89.3"/>
			</g>
		</g>
		<g class="st4">
			<g>
				<defs>
					<rect id="SVGID_23_" x="16.8" y="168.4" width="318.1" height="169.6"/>
				</defs>
				<clipPath id="SVGID_2_">
					<use xlink:href="#SVGID_23_"  style="overflow:visible;"/>
				</clipPath>
				<path class="st5" d="M272.1,170.3c-16.7-4.9-37.4,0.1-54,6.4c-36.1,13.5-75.5,17-112.6,6.4c-2.4-0.7-4.8-1.5-7.2-2.3
					c-22.2-7.5-54.9-1-81.5,7.2c1.6,26.4,9.5,53.1,25.7,77.8c38.2,58.4,111.8,85.6,178.7,65.6c66.2-19.8,108.5-77.1,113.7-140.1
					C314.9,185.1,291.6,176,272.1,170.3"/>
			</g>
		</g>
		<path class="st1" d="M211.7,256.7c0,0-54.9,32.2-108,3.5c-20.5-11.1-46.3-12.7-70.4-10.5c36.7,73.6,124.2,108,201.9,76.9
			c40.5-16.2,70.7-47.2,86.9-84.3C270.4,230,211.7,256.7,211.7,256.7"/>
		<path class="st6" d="M288.2,273.9c0,0-28,1.4-28,1.4c-83.7,5.1-151.4-75.1-132.2-156.9c6-27.8,22.3-53.3,44.7-71l-4.8,0.3
			C38.4,54.5-8.3,218.7,101.6,289.2c0,0,0.6-0.9,0.6-0.9c-43-32.2-63.8-90.4-48.5-141.8C67.1,96.8,111.4,56,163.5,51.2
			c-65.3,58-59.5,166.1,16,213.7c16.3,10.6,35.1,17.3,54.3,20c-34,9.5-66.8,6-93.5-10.8c1.1-2.4,1.9-5.6,0.6-9.3
			c-2.7-7.9-2.6-5.4-5.7-14.1c0,0-5.3,8.3-3.6,17.4c-9.1-7.1-17.4-15.9-24.6-26.5c2.3-1.5,7.1-5.6,6.6-12.7c-0.6-9.1-1.2-6.5-2-16.6
			c0,0-11.1,10.2-8.4,23.2c-3.1-5.1-6-10.4-8.5-16.1c-3.8-21.8-28.1-23-28.1-23c7,9.9,4.5,7.9,10.8,16.8c5.2,7.3,13.4,6.9,16.3,6.6
			c4.5,12.5,10.9,24.6,19,35.5c-8.8-3.3-17.7-1.1-17.7-1.1c8.7,6.8,5.9,5.7,13.8,11.8c5.6,4.4,11.7,3,14.8,1.9
			c6.3,6.4,13.4,12.1,21.2,16.7c-2.2,0.3-4.6,0.7-10.9,0.9c0,0,15.9,18.6,36,9.6C209.9,305.7,252.1,292.1,288.2,273.9"/>
	</g>
</g>
</svg>
