<?xml version="1.0" encoding="utf-8"?>
<!-- Generator: Adobe Illustrator 23.0.5, SVG Export Plug-In . SVG Version: 6.00 Build 0)  -->
<svg version="1.1" id="Capa_1" xmlns="http://www.w3.org/2000/svg" xmlns:xlink="http://www.w3.org/1999/xlink" x="0px" y="0px"
	 viewBox="0 0 1080 468" style="enable-background:new 0 0 1080 468;" xml:space="preserve">
<style type="text/css">
	.st0{fill:#6E1F5E;}
	.st1{fill:#C6C7D2;}
	.st2{opacity:0.8;}
	.st3{clip-path:url(#SVGID_1_);fill:#CECFDB;}
	.st4{opacity:0.47;}
	.st5{clip-path:url(#SVGID_2_);fill:#CECFDB;}
</style>
<g>
	<polygon class="st0" points="80.5,241.4 51.5,159.6 29,159.6 69.7,274.7 90.9,274.7 132.3,159.6 109.8,159.6 	"/>
	<rect x="182" y="159.6" class="st0" width="21.8" height="115.1"/>
	<polygon class="st0" points="284,159.6 262,159.6 262,274.7 315.9,274.7 315.9,253.8 284,253.8 	"/>
	<polygon class="st0" points="388.1,159.6 366.2,159.6 366.2,274.7 420,274.7 420,253.8 388.1,253.8 	"/>
	<path class="st0" d="M527.7,159.6h-22.2l-44.4,115.1h22.8l9.4-23.7h47l9,23.7H572L527.7,159.6z M501.3,229.6l15.4-39.5l15.3,39.5
		H501.3z"/>
</g>
<g>
	<path class="st0" d="M78.5,343.3c-4.7-2-12.4-3-23.1-3H35.7v97.8h18.6v-41.4c9.5,0,16-0.5,19.6-1.5c6.1-1.8,11-4.9,14.5-9.4
		c3.6-4.5,5.4-10.2,5.4-17c0-6.2-1.4-11.5-4.1-15.9C87,348.5,83.2,345.3,78.5,343.3z M74.2,374.3c-1,1.5-2.5,2.6-4.3,3.3
		c-1.8,0.7-5.1,1-9.7,1h-5.9v-20.1h5.3c5.8,0,9.7,0.6,11.8,1.9c2.9,1.7,4.4,4.5,4.4,8.3C75.8,370.9,75.2,372.7,74.2,374.3z"/>
	<path class="st0" d="M162.3,340.3l-37.7,97.8h19.4l8-20.2h39.9l7.7,20.2h19.4l-37.6-97.8H162.3z M158.7,399.9l13.1-33.6l13,33.6
		H158.7z"/>
	<polygon class="st0" points="244,358.7 261.4,358.7 261.4,438.2 280.2,438.2 280.2,358.7 298.1,358.7 298.1,340.3 244,340.3 	"/>
	<polygon class="st0" points="331.3,438.2 384.7,438.2 384.7,419.9 349.8,419.9 349.8,394.1 384.7,394.1 384.7,376.2 349.8,376.2 
		349.8,358.6 384.7,358.6 384.7,340.3 331.3,340.3 	"/>
	<path class="st0" d="M477.2,384.9c3.1-4.3,4.6-9.7,4.6-16.1c0-6.1-1.4-11.4-4.2-15.9c-2.8-4.5-6.5-7.7-11.1-9.6
		c-4.6-1.9-12.3-2.9-23.1-2.9h-19.7v97.8h18.6v-41.4h1.7l22,41.4h20.4l-23.2-43.5C469.5,392.4,474.2,389.2,477.2,384.9z
		 M460.5,376.2c-2.2,1.6-6.3,2.3-12.2,2.3h-5.8v-20.1h5.1c5,0,8.4,0.3,10.2,1c1.9,0.7,3.3,1.8,4.4,3.4c1.1,1.6,1.7,3.4,1.7,5.6
		C463.8,372.1,462.7,374.7,460.5,376.2z"/>
	<polygon class="st0" points="581.8,404.7 539.9,340.3 522,340.3 522,438.2 540.7,438.2 540.7,374 582.5,438.2 600.4,438.2 
		600.4,340.3 581.8,340.3 	"/>
	<path class="st0" d="M691.9,340.3H673l-37.7,97.8h19.4l8-20.2h39.9l7.7,20.2h19.4L691.9,340.3z M669.4,399.9l13.1-33.6l13,33.6
		H669.4z"/>
</g>
<path class="st0" d="M821.2,438.2c-0.6,0-1-0.5-0.8-1.1c3-8.5,23.1-64.6,24.4-75.7c1.4-12,4.8-34.5-14.1-63.6
	c-14.5-22.4-25-39.2-29.1-45.7c-0.5-0.7,0.4-1.6,1.1-1.1c10.9,6.9,48.1,32.1,55.7,31.4c8.9-0.8-12.3-92.4-13.7-114.5
	c-0.1-0.9,1.2-1.2,1.6-0.3c4.7,11.9,19.3,49.3,27.3,66.1c2,4.1,6.9,5.8,11,3.7c7-3.6,18-9.6,28.1-15.6c0.8-0.5,1.7,0.5,1,1.2
	c-10.4,11.1-32.7,39.9-32.8,84.5c-0.1,58.2-0.1,71.2-1.1,80.4c-0.9,8.6-4.7,44.1-5.2,49.6c0,0.4-0.4,0.7-0.8,0.7H821.2z"/>
<path class="st1" d="M801.5,245.4c0,0,14.9-9.2,27.3-44.1c12.5-35.3-11.4-44.7-23.1-58.7c-11.7-13.9-38.7-23.8-63.1-9.5
	c-24.4,14.3-51.4,47.6-39.3,79.6s28.9,61.8,45.3,63.4c13,1.2,27.7-6.3,35.1-13.9c5.6-5.7,11.1-11.5,17.4-16.5L801.5,245.4z"/>
<g class="st2">
	<g>
		<defs>
			<rect id="SVGID_5_" x="808.6" y="80.4" width="106" height="135.4"/>
		</defs>
		<clipPath id="SVGID_1_">
			<use xlink:href="#SVGID_5_"  style="overflow:visible;"/>
		</clipPath>
		<path class="st3" d="M883.1,203.7c0,0-19.3-51.1-31.9-59.2c-12.6-8.1-41.6-16.9-42.6-34.7c-1-17.8,39.2-36.1,60.6-26.9
			c21.4,9.3,38.3,55.4,37.8,67.5c-0.5,12.1,17.1,58.7,0,63.7C890,219.2,884,211.8,883.1,203.7"/>
	</g>
</g>
<g class="st4">
	<g>
		<defs>
			<rect id="SVGID_7_" x="898.1" y="203" width="76.5" height="117.7"/>
		</defs>
		<clipPath id="SVGID_2_">
			<use xlink:href="#SVGID_7_"  style="overflow:visible;"/>
		</clipPath>
		<path class="st5" d="M926.4,316.9c0,0,45.9-26.9,46.4-49.2c0.5-22.4,10-52.8-18.3-62.5c-28.3-9.7-33.1,15.7-31.9,31.6
			c1.2,15.9-17.8,21.4-21.6,34C897.1,283.4,891.6,334.9,926.4,316.9"/>
	</g>
</g>
<path class="st0" d="M765.3,320c-11.5,1.2-26.5,1.1-32.4-11.2c-2.4-5.1-6.4-9.3-10.2-13.7c-13.8-15.5-30.6-28.7-45.6-42.6
	c-8.5-12.2-12.6-30.4-4.2-43.5c-0.5-8.2-12.4-17.6-19-23.5l-3.3-2.6c-0.7-0.6-0.6-0.5-0.8-0.5c-5.5-2.4-11.8-5.2-17.6-5.4
	c-5.5-0.2-9-3.9-11.5-7.3c-9.5-13.7-6.9-34.1,7.3-43.3c10.9-5.6,20.1-13.1,26.4-23.8c0.7-1.7,3.6-4.6,5.4-5.9c7-5.2,17.5-4.6,24,1.4
	c0-0.1-0.1-0.2-0.2-0.2c-0.2-0.1-0.6-0.1-0.8,0.1c2-3.2,6-9.5,8.1-12.8c4.6-6.3,7.9-15.6,15.7-18.7c4.3-1.7,11.5-4.6,15.9-6.4
	l32.8-13.1c0.1-0.1-0.3,0.1-0.5,0.5c-0.2,0.2-0.2,1.1-0.1,1.5c-4.3-12.9,6.2-22.9,18.5-22.8c0.6-0.3,2.5-0.6,3.9-1.1
	c34.9-11.5,73.9-17.2,110.5-7c23.6,4.6,109,47.8,69.9,74.5c1.4-1.6,1.6-0.8,3.3-5.4c0.9-1.2-0.1-7.2-0.9-7.9
	c7.8,11.8,25.1,36.6,33.2,48.6c3.2,4.7,7.8,11.3,10.1,16.3c5.7,11.5,9.9,23.6,12.1,36.6c1.4,10.1,5.5,18.8,12,24.6
	c2.3,2,4.4,3.1,6.9,4c11.2,5.6,12.8,19.5,15,29.3c0.7,4,1.2,8.4,1.3,12.7c0.1,2-0.6,7.2-2.9,9.2c-5.3,6-17.3,2.4-22.8,4
	c0.4-0.1,1.7-2,1.5-3c-0.7,5.2,0.4,9.5-0.7,15.8c-0.4,2.7-3.5,6.1-6.1,6.9c-1.1,0.3-3.6,1.2-4.2,1.6c0.5-0.6,2-2.7,1.4-4.8
	c1.3,5.3,5.1,19.3,5.6,27.8c-0.2,6.4-2.3,12.2-3.7,18.2c-2.8,12.5-17.3,16.4-27,8.6c-2-0.9-0.7-0.2-0.6-0.9c0.3-1.3-0.3,0.6,0.5,2.8
	c0.2,0.5,0.3,1.1,0.6,1.6c1.2,2.5,0.4,5.8-1.2,7.6c-9.5,10.7-20.7,18.1-32.1,26.4l-2.1,1.3c-0.2,0.1-0.3,0.2-1.1,0.6
	c-2.2,1.1-5.7-0.4-6.3-2.1c-2.6-5.9-1.3-10-1-15.6c0.9-5.6,1.5-12.8,4-17.4c-1.2-3.3-6.7-5.1-9.7-1.4c-5.1,4.3-11.6,4.9-15,9
	c-2.9,4.5-1.9,11.5-0.5,16.6c-2.1-5.5-4-11.9-1.1-17.7c3.9-5.5,10.5-6.8,14-10.7c4.4-6.5,17.4-4.1,17.7,4.9
	c-1.8,5.5-2.2,11.4-2.4,17.2c0,3.3-0.1,8.2,0.7,10.6c0-0.1-0.8-1.1-2.2-1.2c-0.7-0.1-1.2,0.1-1.4,0.2c-0.4,0.2-0.3,0.2-0.1,0
	c10.1-8.1,21-17.1,29.1-27.1c0.1-0.2,0.1-0.2,0,0c0,0-0.3,0.7-0.3,1.1c-0.1,0.5-0.1,1.5,0.2,2.1c0.4,1.1,0.2,0.4,0.2,0.4
	c-1.3-2.7-2.2-5-2.6-8.4c-1.1-11.6,11.6-16.2,20.3-10.4c2.2,1.4,3.6,1.9,5,0.1c0.2-0.5,0.1-0.2,0.4-1.5l0.9-4.2
	c0.7-3.3,1.4-7.2,1.5-10.1c-1.3-6.9-3.4-13.8-5.5-20.7l-0.6-2l-0.3-1c-3.2-8.1,4.5-14.9,11-16.8c0,0,1.2-0.4,1.2-0.4l0.5-0.2
	l0.1-0.1c0.3-0.1-1.1,0.4-1.6,0.8c-1.4,1-1.9,1.7-2.4,2.7c-0.4,0.7-0.6,1.3-0.7,1.9c-0.2-2.8-0.5-9.5-0.2-13.4
	c1.2-14.3,18.7-14.7,28.1-14.8c0.6,0,1.2-0.1,1.4-0.1c0,0,0.1-0.1-1,0.2c-2.5,0.8-4.6,3.2-5.3,5.7c-0.3,1.4-0.1,0.5-0.2,0.3
	c-0.7-7.7-3-18.7-6.8-24.4c0.1,0.1,0.4,0.5,1.5,1c0.1,0.1,0.9,0.3,0.5,0.2l-0.8-0.3l-1.6-0.6c-32.8-14-26.7-51-43-76.4
	c-1-1.9-5.6-7.9-7-10c-6.5-9.2-23.8-34-30.4-43.6c-1.4-2-3.7-5.4-4.9-7.5c-0.9-0.8-1.9-7-0.9-8.4c2-5.5,2.4-4.7,4.7-7.1
	c1.4-1.2,2.7-1.9,3-2.1c-0.4,0.2-1.5,1.7-1.7,3.3c0,3.1,0.5,2-0.7,0.9c-33.3-32.5-81-46.6-126.7-37.5c-12.6,2-25,6.2-38.2,9.6
	c-1.4,0.3-4,0.7-5.3,0.7c-0.6,0-0.8,0.2,0.3-0.3c1.8-0.6,3.6-4.8,3-6.4c3.4,9.9-3.4,22.2-13.1,25.4c-9.3,3.3-40.3,15.3-47.7,17.5
	c-3.6,5.2-8.6,13.1-12.2,18.4l-2.4,3.7c-5.6,10.6-20.7,13.8-29.7,5.8l-0.8-0.7l0,0l0,0c0.2,0.1,0.4,0,0.5-0.2
	c-7.7,11.7-19.6,22.7-33.1,28.5c-7.3,3.9-7,14.8-3,20.4c-0.2-0.1-0.6-0.4-1.9-0.5c9.2,0.9,19.6,5.3,26.9,10.5
	c10.7,10.2,23.7,20.2,25.6,36.2c0.6,6.3-5.8,10.5-5.6,17.1c-0.6,7.9,1.5,18.2,7,24.3c18.2,17.7,37.5,35.5,49.3,58.2
	C740.2,318.8,754.5,320,765.3,320"/>
</svg>
