<?xml version="1.0" encoding="utf-8"?>
<!-- Generator: Adobe Illustrator 23.0.5, SVG Export Plug-In . SVG Version: 6.00 Build 0)  -->
<svg version="1.1" id="Capa_1" xmlns="http://www.w3.org/2000/svg" xmlns:xlink="http://www.w3.org/1999/xlink" x="0px" y="0px"
	 viewBox="0 0 2000 1118" style="enable-background:new 0 0 2000 1118;" xml:space="preserve">
<style type="text/css">
	.st0{fill:#202B50;}
</style>
<g>
	<path class="st0" d="M434.9,519.6l-0.1-0.2C435,519.9,435.2,520.2,434.9,519.6"/>
	<path class="st0" d="M164.9,892.6l-24.6,21.7c-8.6-12-17.5-18.1-26.4-18.1c-4.4,0-7.9,1.2-10.7,3.5c-2.8,2.3-4.2,5-4.2,7.9
		c0,2.9,1,5.7,3,8.3c2.7,3.5,10.8,11,24.4,22.5c12.7,10.6,20.4,17.3,23.1,20.1c6.7,6.8,11.5,13.3,14.3,19.5c2.8,6.2,4.2,13,4.2,20.4
		c0,14.3-5,26.2-14.9,35.5c-9.9,9.3-22.8,14-38.8,14c-12.4,0-23.3-3-32.5-9.1c-9.2-6.1-17.1-15.7-23.7-28.7l28-16.9
		c8.4,15.4,18.1,23.2,29,23.2c5.7,0,10.5-1.7,14.4-5c3.9-3.3,5.8-7.2,5.8-11.5c0-4-1.5-7.9-4.4-11.9c-2.9-4-9.4-10-19.4-18.2
		c-19-15.5-31.3-27.5-36.9-35.9c-5.5-8.4-8.3-16.8-8.3-25.2c0-12.1,4.6-22.5,13.9-31.2c9.2-8.7,20.6-13,34.2-13c8.7,0,17,2,24.9,6.1
		C147.2,874.6,155.7,881.9,164.9,892.6"/>
	<polygon class="st0" points="236.3,868.9 331.7,868.9 331.7,901.4 269.3,901.4 269.3,933 331.7,933 331.7,965 269.3,965 
		269.3,1010.9 331.7,1010.9 331.7,1043.6 236.3,1043.6 	"/>
	<path class="st0" d="M399.1,868.9h35.3c19.1,0,32.8,1.8,41.3,5.3c8.4,3.5,15.1,9.2,20,17.1c4.9,7.9,7.3,17.3,7.3,28.3
		c0,12.2-3.2,22.3-9.6,30.4c-6.4,8.1-15,13.7-26,16.9c-6.4,1.8-18.1,2.7-35,2.7v74h-33.3V868.9z M432.4,937.2h10.6
		c8.3,0,14.1-0.6,17.3-1.8c3.2-1.2,5.8-3.2,7.7-5.9c1.9-2.7,2.8-6.1,2.8-10c0-6.8-2.6-11.7-7.8-14.8c-3.8-2.3-10.8-3.5-21.1-3.5
		h-9.4V937.2z"/>
	<polygon class="st0" points="554.7,868.9 651.3,868.9 651.3,901.7 619.5,901.7 619.5,1043.6 585.7,1043.6 585.7,901.7 554.7,901.7 
			"/>
	<polygon class="st0" points="710.7,868.9 806.1,868.9 806.1,901.4 743.8,901.4 743.8,933 806.1,933 806.1,965 743.8,965 
		743.8,1010.9 806.1,1010.9 806.1,1043.6 710.7,1043.6 	"/>
	<polygon class="st0" points="890.6,868.9 923,868.9 963.5,990.7 1004.4,868.9 1036.8,868.9 1066.1,1043.6 1033.9,1043.6 
		1015.2,933.2 978,1043.6 948.7,1043.6 911.9,933.2 892.7,1043.6 860.3,1043.6 	"/>
	<polygon class="st0" points="1233.7,868.9 1265.6,868.9 1340.4,983.9 1340.4,868.9 1373.7,868.9 1373.7,1043.6 1341.7,1043.6 
		1267,929 1267,1043.6 1233.7,1043.6 	"/>
	<rect x="1447.7" y="868.9" class="st0" width="33" height="174.7"/>
	<polygon class="st0" points="1554.5,868.9 1588.3,868.9 1588.3,934.8 1646.6,934.8 1646.6,868.9 1680.2,868.9 1680.2,1043.6 
		1646.6,1043.6 1646.6,967 1588.3,967 1588.3,1043.6 1554.5,1043.6 	"/>
	<rect x="1754.2" y="868.9" class="st0" width="33" height="174.7"/>
	<polygon class="st0" points="1861.2,868.9 1894.4,868.9 1894.4,1011.9 1942.9,1011.9 1942.9,1043.6 1861.2,1043.6 	"/>
	<path class="st0" d="M1225.2,148.7c1.6-9.7,5.1-18,4.5-26.9c-0.7-7.4,2.1-15.8,6.4-14.8c4.9-0.1,7.4,6.4,6.7,15.4V144
		C1236.9,144.8,1231.8,147.6,1225.2,148.7c8.9,3.6,16.3,5.7,26.6,4.7c0-2.6,0-27.9,0-31.2c0.1-4,0.3-9.7-1.9-14.8
		c-4.5-13.3-23.1-13.3-27.2,0.1c-2.1,4.9-2.1,10.6-2,15.4C1220.1,132.1,1222.3,140,1225.2,148.7"/>
	<path class="st0" d="M1073.8,530.8c-23,5.5-126.8,53.8-150.1,63l-54.1,23.6c-0.4-0.2-14.6-5.8-14.6-5.8
		c-18.3-7.3-70-27.9-88.8-35.3c-23.2-9.9-48.1-19.3-73.8-16.6c-22.8,1.2-48,13.7-68.5,21.4l-59.3,23.3c-4.9,1.9-7.5,1.7-11.2,0.7
		c-4.8-2.1-5.8-2.8-9.1-7.9l-36.6-52.1c-0.5-0.8-1.5-2.1-2.3-3.2c0.3,0.6,0.5,1.2,0.3,1.3c-0.2-0.5-0.3-1.1-0.5-1.6
		c-0.3-0.5-0.8-1-1-1.3c0.3,0.2,0.6,0.7,0.9,1.2c-4-12.2-9.2-28-13-39.9c-9.6-24.6-31.4-73.6-41.3-97.7
		c-5.3-12.4-16.2-22.7-24.7-32.7c-13.1-15.2-49.5-55.2-61.5-70c-10.4-12.7-20.9-36.4-29.4-51.3l-3.4-6.5c2.2-0.4,5.1-1,5.1-1
		c17.2-2.5,41.5-9.3,58.7-10c10.6-0.2,36.2-1.1,47.1-1.3c-0.3-0.1-0.6-0.3,0-0.3c4.1,1.3,33,12.2,37.4,13.6
		c19.8,7.4,70.7,25.1,90,32.1c15.5,4.5,46.7,13.8,62.1,18.2c13.8,5.7,26.3,0.7,39.1-2.3l61.9-15.3c19.9-6,37.1-5.5,57.2,1.4
		c25.4,7.6,50.9,15.1,76.4,22.4l37.4,10.6l17.7,5.1c2.1-32.2,2.9-64.6,3.2-96.9c18.5-1.1,37-2.9,55.5-5.4
		c-6.6,62.6-4.7,125.3,6.1,187.8c-13.2-1.3-26.4-2.8-39.4-5.1c-61.8-14-119-50.5-180.5-69.5c56.2,34.2,111.3,73.9,176.2,89.3
		c65.2,11,131.8,3,197.4-1.8c-50.7-8.7-102.1-8.1-153-12.9c13.6-78.3,13.4-157-0.4-235.3c0,0,0,0.1,0,0.1c0-0.1,0-0.1,0-0.2
		c-0.4,2.5-0.7,5-1.1,7.5c-1.4,8.6-2.7,17.2-3.8,25.8c-44.8-6.5-92.4-7.6-137.5-7.4c15.4,11.3,39.6,30,56.9,42.3
		c0.3,25,1.2,50,2.6,75c-35.9-16.1-71.9-31.9-108-47.3c-18.8-10.1-46.6-13.4-67.4-8.7l-63.1,9.1l-15.8,2.4c-3.6,0.5-1.9,0.4-3.7-0.2
		c-16.4-6.3-45.9-17.2-62.4-23.6c-18.9-8.4-67.8-29.7-87.6-38.2c-14.1-5.3-37.6-18.5-52.8-19c-25.9-0.4-57.9-3.2-83.6,1.7
		c-5.2,1-35.4,4.9-39.7,5.9c-16.1,2.6-30.8,13.8-37.6,28.6c-8.8,16.8-4.8,38,4.5,53.6c12,24.5,24.8,53.7,43.5,74.3
		c16.2,19.3,48.7,57.7,65.8,77.5c-0.2-0.3-0.3-0.7-0.4-1.1c0-0.2,0.4,0.9,0.6,1.3c0.3,0.3,0.7,0.8,0.9,1.1c0.3,0.5-0.5-0.3-0.9-0.9
		l12.1,29.3L433,515l1.5,3.7c0.1,0.2,0.2,0.4,0.3,0.7c1.8,5.6,5.6,17.8,7.4,23.4c3,8.2,5.4,20.6,10.1,28.2
		c3,5.7,38.3,54.6,43.1,61.1c18.1,29.1,60.7,41.9,91.4,27.6l59-23.9c22.2-8.3,49.3-24.5,73.2-17.2c19.6,6.2,67.3,24.2,87.6,31.2
		c9.4,3.5,36,12.8,44.9,16.1c10.8,4.4,23.2,4.8,34,0.3l58.3-29.3l113.6-57.6c24.8-15,47.7-20.6,75.4-6.1
		c88.2,36.8,176.8,73.1,266.3,106.9c-74-42.1-149.2-81.8-224.3-121.6C1145.2,542.5,1110.2,520.8,1073.8,530.8"/>
	<path class="st0" d="M940.9,183.6L940.9,183.6C940.9,183.6,940.9,183.6,940.9,183.6z"/>
	<path class="st0" d="M1239.9,174.4c-2.5-0.6-5.3-1.1-8.1-1.5C1234.4,173.4,1237.1,173.9,1239.9,174.4z"/>
	<path class="st0" d="M1552.8,548.6c-16-5.1-26.4-13-45.4-26.5c-34.6-23.8-70.3-45.9-107.4-66.1c-18.8-11.7-44.6-18.7-67.4-19.2
		c-32.5-1.7-51.1-2.5-56.7-0.6c0.8-19.1,2-38.1,4.1-57.1c5.3-47.8,6.5-95.8,7.8-143.9c18.7-12.2,45.4-29.9,62.6-41
		c-20.2-0.7-40.9-1.1-61.7-1.1c0.4-36.6-2.3-71.2-12.3-108c5.6-0.5,11.1-1.2,16.6-1.9c-26.3-2.1-51.3-4.4-77-5l30.3-15.7
		c15.2,9.1,29.9,12.1,46.7,20.7c-13.2-10.6-30.4-24.5-46.5-32.3l-2.4,1.3c-13,6.7-57.4,29.8-69.6,36.2c7.1,0,14.3,0.1,21.6,0
		c-3,22.6-5.2,45.1-6.9,67.7c5.1,1.7,10.2,3.4,15.3,5.1c-1.7-24.3-4-48.5-7.2-72.8c26.1-0.1,52.6-0.7,78.4-3.2
		c-10.1,37-12.6,70.8-12.3,108.1c-19.2,0.2-38.2,0.8-56.8,1.8c-0.5-10-1.1-19.9-1.8-29.9c-5.3-1.7-10.6-3.6-15.8-5.4
		c-0.2,2.5-0.3,4.9-0.5,7.4c-13.5,85.3-13.5,170.9,0.3,256.2c11.1-68,13.2-136.2,6.8-204.3c22.6,1.4,45.3,2.2,68,2.6
		c1.5,57.9,4.1,154.8,11.4,215.1c-4.9,3.1,12.7,11.3,50.5,29.1c21.2,8.6,32.9,16,47.6,29.6c32.1,27.5,65.5,53,100.1,76.7
		c17.6,12.5,42,27.9,65.2,32c20.2,4.1,42.4,6.6,60.8,9.6c38.5,5.8,67,36.9,91.1,66.1C1680.5,594.2,1629.2,568.1,1552.8,548.6z"/>
	<path class="st0" d="M1028.3,155.6l-89.2,20.3l148.6-64.7l152.2,63.2c0,0,0,0,0,0c-49.9-23.2-100.4-52.6-152.3-71.9l-3.1,1.3
		l-148.6,64.7l4.9,15.1c1.4-0.5,84-18.8,87.8-20.1h116.7c19.6,5.8,59.2,5,86.4,9.3c-1.1-0.2-2.2-0.5-3.4-0.7l-83-16.5H1028.3z"/>
	<path class="st0" d="M1027.4,147.6c-0.3,0.1-3,0.7-7.4,1.7l67.6-29.5c50.1,22.4,101.1,33.9,152.2,54.5l-152.2-63.2l-148.6,64.7
		l89.2-20.3h117l83,16.5c-28.8-6.7-54.4-19.5-83-24.5C1144.8,147.7,1027.8,147.6,1027.4,147.6z"/>
	<path class="st0" d="M692.8,713.5v-36.4h-6.6c-11.6,0-21,9.4-21,21v15.5H692.8z"/>
	<path class="st0" d="M704.5,713.5h27.5v-15.5c0-11.6-9.4-21-21-21h-6.6V713.5z"/>
	<path class="st0" d="M704.5,725.3v36.4h6.6c11.6,0,21-9.4,21-21v-15.5H704.5z"/>
	<path class="st0" d="M692.8,725.3h-27.5v15.5c0,11.6,9.4,21,21,21h6.6V725.3z"/>
	<path class="st0" d="M1095.1,681.7V636h-8.2c-14.5,0-26.3,11.8-26.3,26.3v19.4H1095.1z"/>
	<path class="st0" d="M1110,681.7h34.6v-19.4c0-14.5-11.8-26.3-26.3-26.3h-8.3V681.7z"/>
	<path class="st0" d="M1110,696.6v45.8h8.3c14.5,0,26.3-11.8,26.3-26.3v-19.4H1110z"/>
	<path class="st0" d="M1095.1,696.6h-34.6V716c0,14.5,11.8,26.3,26.3,26.3h8.2V696.6z"/>
</g>
</svg>
