<svg xmlns="http://www.w3.org/2000/svg" xmlns:xlink="http://www.w3.org/1999/xlink" id="Capa_1" x="0px" y="0px" viewBox="0 0 170.1 105.1" style="enable-background:new 0 0 170.1 105.1;" xml:space="preserve"><style type="text/css">	.st0{fill:#FFDE00;}</style><path class="st0" d="M89.1,31.7c-27.8,0.3-48.6,20.9-49.5,49c-0.1,2.4,0.1,4.9,0.4,7.4h0.8h0.1h5c-0.5-0.3-1-0.7-1.3-1.1 c-1-1.2-1.5-2.8-1.5-4.5c0-1.9,0.6-3.5,1.7-4.8c1.2-1.4,2.7-2.1,4.7-2.1c0.5,0,1.1,0.1,1.7,0.3l0.4,0.1l-0.4,2.4l-0.5-0.2 c-0.6-0.2-1.1-0.3-1.5-0.3c-1.2,0-2.1,0.4-2.7,1.2c-0.6,0.8-0.9,1.9-0.9,3.1c0,1.3,0.4,2.3,1.1,3.2c0.7,0.9,1.7,1.3,2.9,1.3 c0.5,0,1.1-0.1,2-0.4l0.7-0.2l-0.2,2h2c0-0.2,0.2-0.9,2.2-6.1c1.9-4.9,2.1-5.9,2.1-6l0-0.4l0.4,0h2.4v0.5c0,0.2,0.2,1.1,2,5.9 c1.9,5.2,2.1,5.9,2.1,6.2h2.2l0.5-2.3l0.5,0.2c0.9,0.3,1.7,0.5,2.5,0.5c2.4,0,2.4-0.9,2.4-1.3c0-0.4-0.2-0.8-0.6-1.1 c-0.2-0.2-0.7-0.5-1.8-1c-1.1-0.5-1.8-1-2.2-1.4c-0.6-0.7-1-1.5-1-2.5c0-1,0.3-1.9,1-2.5c0.7-0.7,1.7-1.1,3-1.1 c1.4,0,2.3,0.1,2.9,0.3l0.3,0.1l-0.3,2.4l-0.5-0.2c-0.8-0.3-1.6-0.4-2.5-0.4c-1.7,0-1.7,0.8-1.7,1.1c0,0.4,0.1,0.6,0.4,0.9 c0.2,0.1,0.6,0.4,1.7,0.9c1.1,0.5,1.9,1,2.4,1.5c0.8,0.8,1.2,1.7,1.2,2.8c0,1.2-0.4,2.5-1.8,3.2H78L79.5,72l0,0l0.1-0.2l0-0.1h-2.6 l-2.7-9.5h6.7v4.4h3.8v-4.4H85h5.1h0.4v4.4h3.8v-4.4h6.7l-2.7,9.5h-2.6l0,0.1l0.1,0.2l0,0l1.5,16.2h3.1c0.1-2,0.1-4.1,0.1-6.3 c0-2.2,0-4.1-0.1-5.7l0-0.5h2.5l0,0.5c-0.1,1.7-0.1,3.6-0.1,5.7c0,2.2,0,4.4,0.1,6.3h3.2c0.1-1.5,0.1-3.6,0.1-6.3 c0-2.3,0-4.2-0.1-5.7l0-0.5h2.5l0,0.5c-0.1,1.2-0.1,3.2-0.1,5.7c0,1.9,0,3.4-0.1,4.6c1.5,0,3,0,4.6-0.1l0.5,0l-0.1,1.8h1.7 c0.1-1.5,0.1-3.7,0.1-6.3c0-2.3,0-4.3-0.1-5.8l0-0.5h2.5l0,0.5c-0.1,1.2-0.1,3.2-0.1,5.8c0,1.9,0,3.4-0.1,4.7c1.5,0,3,0,4.6-0.1 l0.5,0l-0.1,1.8h3.8c-0.5-0.3-1-0.7-1.4-1.1c-1.1-1.2-1.6-2.7-1.6-4.6c0-2.1,0.6-3.8,1.7-5c1.2-1.2,2.5-1.9,4-1.9 c1.5,0,2.8,0.6,3.9,1.7c1.1,1.2,1.6,2.7,1.6,4.6c0,2.1-0.6,3.7-1.7,5c-0.5,0.5-1,1-1.6,1.3h5.4h0.1h0.8c0.3-2,0.4-4,0.5-5.8 c0.2-13.3-5.3-26.6-15-36.3C113.4,36.7,101.5,31.6,89.1,31.7"></path><path class="st0" d="M144.6,79.6c1.5-1.2,2.9-2.9,4.7-3.6c4.3-1.6,8.8-2.8,13.2-4.2c-4.8-1-9.5-0.8-14.2-1.1 c-1.7-0.1-3.4-1.4-5.1-2.1c1.2-1.6,2.1-3.4,3.6-4.6c1.9-1.6,4.2-2.8,6.3-4.1c-0.2-0.4-0.3-0.7-0.5-1.1c-2,0.2-4,0.6-6,0.4 c-2.4-0.2-4.7-0.9-7-1.4c1.3-2,2.2-4.4,3.9-5.9c3.3-3.1,7.1-5.8,10.7-8.6c-4.5,1.1-8.5,3-12.7,4.3c-2.3,0.7-4.9,0.5-7.4,0.6 c1-2.3,1.6-5,3.2-6.9c4.2-5.2,8.8-10.1,13.7-15.7c-6.7,4.8-12.8,9.2-19.1,13.4c-1.2,0.8-3.2,0.5-4.8,0.8c0.1-1.5-0.1-3.2,0.4-4.6 c0.9-2.8,2.2-5.4,3.4-8.1c-0.3-0.2-0.7-0.4-1-0.6c-2,1.6-4,3.5-6.2,4.9c-1.5,1-3.4,1.3-5.1,1.9c-0.2-1.9-0.8-4-0.4-5.8 c0.8-3.7,2.2-7.3,3.3-10.9c-0.4-0.3-0.9-0.6-1.3-1c-0.2,0.6-0.2,1.3-0.5,1.7c-2.4,3.2-4.7,6.5-7.4,9.4c-2.7,2.8-4.6,2.1-5.4-1.8 c-0.4-2.1-0.6-4.2-1.1-7.7c-2,2.6-3.1,4.3-4.5,5.7c-1,1-2.5,2.2-3.5,2c-1-0.2-2.1-2-2.4-3.2c-0.9-3.5-1.4-7.1-2.1-10.6 c-1.6,2.3-2.2,4.8-3.1,7c-1,2.2-2.3,4.2-3.5,6.3c-1.4-2.1-3.4-3.9-4.2-6.2c-1.7-5.2-2.8-10.6-4.1-15.9c-0.8,6-0.6,11.9-0.9,17.8 c-0.1,2-1.5,3.9-2.3,5.8c-1.6-1.4-3.5-2.5-4.6-4.2c-2.2-3.1-3.9-6.5-5.8-9.8c-0.1,3.8,0.8,7.4,1,11c0.1,2.2-0.8,4.4-1.2,6.5 c-1.9-1-3.8-1.9-5.6-3c-1.3-0.8-2.4-1.9-3.6-2.9c-0.3,0.2-0.6,0.4-0.9,0.6c0.4,1.9,1,3.9,1.2,5.8c0.2,1.7-0.2,3.4-0.3,5.1 c-1.7-0.4-3.6-0.6-5.2-1.4c-2.4-1.2-4.5-2.9-6.8-4.3c0.2,2.5,1.3,4.2,2,6.1c0.8,2.2,1.1,4.6,1.6,6.9c-2.3-0.5-4.9-0.5-7-1.5 c-4.8-2.4-9.3-5.2-13.9-7.9c0.7,1.7,1.9,2.8,3,3.9c3.4,3.3,6.8,6.6,10,10.1c0.9,0.9,0.9,2.6,1.4,3.9c-1.5,0.3-3,0.9-4.4,0.7 c-2.5-0.2-5-0.9-7.5-1.4c-0.2,0.4-0.4,0.8-0.5,1.2c1.6,1.6,3.5,3,4.9,4.8c1.1,1.4,1.6,3.2,2.4,4.8c-1.7,0.6-3.5,1.6-5.2,1.7 c-3.4,0.1-6.8-0.4-10.2-0.6c3.2,2.7,6.6,4.4,9.9,6.4c1.1,0.7,1.8,2.1,2.6,3.2c-1.1,0.8-2.2,1.9-3.5,2.4c-1.2,0.5-2.6,0.4-3.9,0.5 c-3.7,0.3-7.3,0.6-11,0.9c1.8,1.3,3.7,1.8,5.5,2.3c3.3,0.9,6.6,1.8,9.8,2.9c0.9,0.3,2.1,1.6,2.2,2.4c0,0.8-1.2,2-2.1,2.4 c-2.2,0.9-4.4,1.6-6.7,2.2c-0.5,0.1-1,0.2-1.5,0.3h18c-0.3-2.5-0.5-5-0.4-7.4c0.4-13.8,5.8-26.4,15-35.6 c9.3-9.2,21.9-14.4,35.6-14.5c12.7-0.1,24.9,5.1,34.5,14.6c9.9,10,15.5,23.5,15.3,37.2c0,1.9-0.2,3.8-0.5,5.8H151c0.1,0,0.1,0,0.2,0 c2.5-0.4,4.9-0.9,7.4-1.4c-3.1-1.9-6.3-2.6-9.3-3.7C147.6,82.3,146.2,80.7,144.6,79.6"></path><path class="st0" d="M57.5,84.8c-0.7,2.4-0.9,3.1-0.9,3.4h5.9c0-0.3-0.2-1-0.9-3.4H57.5z"></path><path class="st0" d="M58.2,82.6h2.7c-0.7-1.9-1.1-3.1-1.3-3.9C59.3,79.5,58.9,80.7,58.2,82.6"></path><path class="st0" d="M130.7,78.9c-0.7-0.8-1.4-1.1-2.3-1.1c-0.8,0-1.5,0.4-2.1,1.2c-0.6,0.8-1,1.9-1,3.3c0,1.4,0.3,2.5,1,3.3 c0.7,0.8,1.4,1.1,2.3,1.1c0.8,0,1.5-0.4,2.1-1.2c0.6-0.8,1-1.9,1-3.3C131.8,80.7,131.4,79.6,130.7,78.9"></path><path class="st0" d="M87.5,72.7C87.5,72.7,87.5,72.7,87.5,72.7L87.5,72.7c-1.8,1.5-1.9,4.7-1.9,4.7h1.9h0.1h1.9 C89.4,77.4,89.3,74.2,87.5,72.7L87.5,72.7C87.6,72.7,87.6,72.7,87.5,72.7"></path><path class="st0" d="M49.9,93.1c-0.1,0-0.4,0-0.7,0c-0.3,0-0.6,0-0.8,0h-1.1l0,0.4c0.1,1.1,0.1,2.5,0.1,4c0,1.6,0,3.1-0.1,4.4l0,0.4 l0.4,0c1.1,0.1,1.8,0.1,2.3,0.1c1.5,0,2.7-0.5,3.5-1.5c0.8-1,1.3-2.2,1.3-3.5c0-1.2-0.4-2.3-1.2-3.1C52.8,93.5,51.6,93.1,49.9,93.1  M52.9,97.7c0,0.9-0.2,1.6-0.7,2.2c-0.5,0.6-1.2,0.9-2.2,0.9c-0.2,0-0.4,0-0.6,0c0-1.1-0.1-2.2-0.1-3.2c0-0.9,0-1.9,0-2.8 c0.1,0,0.3,0,0.3,0c1.2,0,2,0.3,2.6,0.8C52.6,96.1,52.9,96.8,52.9,97.7"></path><path class="st0" d="M57.8,100.7c0-0.7,0-1.5,0-2.4c0.9,0,1.8,0,2.7,0.1l0.4,0v-1.8l-0.4,0c-0.8,0-1.7,0.1-2.7,0.1 c0-0.8,0-1.4,0-1.9c1.2,0,2.3,0,3.4,0.1l0.4,0l0.1-1.8h-5.7l0,0.4c0.1,1.1,0.1,2.5,0.1,4c0,1.6,0,3.1-0.1,4.4l0,0.4h6l0.1-1.8 l-0.4,0C60.3,100.6,59.1,100.7,57.8,100.7"></path><path class="st0" d="M76.5,93.5v-0.4H74v0.4c0,0.2-0.1,1-1.1,3.4c-0.4,0.9-0.6,1.6-0.8,2.1c-0.2-0.5-0.4-1.2-0.7-2.1 c-0.8-2.3-1-3.1-1-3.4v-0.4h-2.5v0.4c0,0.9-0.1,2.5-0.4,4.8c-0.4,3.5-0.4,3.6-0.4,3.6v0.4h1.9v-0.4c0-0.8,0.1-2.1,0.2-3.9 c0.1-0.6,0.1-1.1,0.1-1.6c0.2,0.6,0.5,1.5,1,2.6c0.8,2.2,0.9,2.7,0.9,2.8v0.4l1.6,0l0-0.4c0-0.1,0.1-0.5,1-2.7 c0.4-1,0.8-1.9,1.1-2.9c0,0.4,0.1,0.9,0.1,1.4c0.1,1.8,0.2,3.2,0.2,4.2v0.4h2v-0.4c0,0,0-0.1-0.3-3.6C76.6,96,76.5,94.4,76.5,93.5"></path><path class="st0" d="M83.8,93.5v-0.4H82l-0.4,0v0.4c0,0.1-0.2,0.8-1.6,4.2c-1.7,4-1.7,4.2-1.7,4.3v0.4h2.1v-0.4 c0-0.1,0.1-0.6,0.7-2.3h3.2c0.6,1.8,0.7,2.2,0.7,2.3v0.4H87v-0.4c0-0.2,0-0.4-1.6-4.4C84,94.3,83.9,93.6,83.8,93.5 M83.6,98h-2 c0.5-1.2,0.8-2,1-2.6C82.8,95.9,83.1,96.7,83.6,98"></path><path class="st0" d="M86.9,94.8l0.4,0c1,0,1.7-0.1,2.3-0.1c0,0.8,0,1.7,0,2.8c0,1.5,0,3-0.1,4.4l0,0.4h2l0-0.4c0-1.5-0.1-3-0.1-4.4 c0-1.1,0-2,0-2.8c0.8,0,1.5,0,2.3,0.1l0.4,0l0.1-1.7H87L86.9,94.8z"></path><path class="st0" d="M102.2,98.6c-0.2-0.4-0.4-0.6-0.7-0.8c0.8-0.5,1.2-1.3,1.2-2.3c0-1.1-0.6-2.3-3.2-2.3c-0.4,0-0.7,0-1,0 c-0.3,0-0.5,0-0.7,0h-1.3l0,0.4c0.1,1.1,0.1,2.5,0.1,4c0,1.6,0,3.1-0.1,4.4l0,0.4h2l0-0.4c0-0.9-0.1-2-0.1-3.2c0.2,0,0.4,0,0.6,0 c0.7,0,1,0.1,1.1,0.1c0.2,0.1,0.4,0.4,0.6,0.8c0.2,0.4,0.5,1.2,0.9,2.4l0.1,0.3h2.1l-0.2-0.5C102.9,100.1,102.4,99,102.2,98.6  M100.8,95.9c0,0.3,0,1.2-2.2,1.2c-0.1,0-0.2,0-0.4,0c0-0.9,0-1.7,0-2.4c0.2,0,0.5,0,0.9,0C100.6,94.7,100.8,95.3,100.8,95.9"></path><path class="st0" d="M107.1,100.7c0-0.7,0-1.5,0-2.4c0.9,0,1.8,0,2.7,0.1l0.4,0v-1.8l-0.4,0c-0.8,0-1.7,0.1-2.7,0.1 c0-0.8,0-1.4,0-1.9c1.2,0,2.3,0,3.4,0.1l0.4,0l0.1-1.8h-5.7l0,0.4c0.1,1.1,0.1,2.5,0.1,4c0,1.6,0,3.1-0.1,4.4l0,0.4h6l0.1-1.8 l-0.4,0C109.6,100.6,108.4,100.7,107.1,100.7"></path><path class="st0" d="M118.7,98.6c-0.2-0.4-0.4-0.6-0.7-0.8c0.8-0.5,1.2-1.3,1.2-2.3c0-1.1-0.6-2.3-3.2-2.3c-0.4,0-0.7,0-1,0 c-0.3,0-0.5,0-0.7,0h-1.3l0,0.4c0.1,1.1,0.1,2.5,0.1,4c0,1.6,0,3.1-0.1,4.4l0,0.4h2l0-0.4c0-0.9-0.1-2-0.1-3.2c0.2,0,0.4,0,0.6,0 c0.7,0,1,0.1,1.1,0.1c0.2,0.1,0.4,0.4,0.6,0.8c0.2,0.4,0.5,1.2,0.9,2.4l0.1,0.3h2.1l-0.2-0.5C119.4,100.1,118.9,99,118.7,98.6  M117.3,95.9c0,0.3,0,1.2-2.2,1.2c-0.1,0-0.2,0-0.4,0c0-0.9,0-1.7,0-2.4c0.2,0,0.5,0,0.9,0C117.1,94.7,117.3,95.3,117.3,95.9"></path><path class="st0" d="M127,93.5v-0.4h-1.9l-0.4,0v0.4c0,0.1-0.2,0.8-1.6,4.2c-1.7,4-1.7,4.2-1.7,4.3v0.4h2.1v-0.4 c0-0.1,0.1-0.6,0.7-2.3h3.2c0.6,1.8,0.7,2.2,0.7,2.3v0.4h2.1v-0.4c0-0.2,0-0.4-1.6-4.4C127.1,94.3,127,93.6,127,93.5 M126.7,98h-2 c0.5-1.2,0.8-2,1-2.6C125.9,95.9,126.2,96.7,126.7,98"></path></svg>